<mxfile host="app.diagrams.net" agent="Mozilla/5.0 (Macintosh; Intel Mac OS X 10_15_7) AppleWebKit/537.36 (KHTML, like Gecko) Chrome/128.0.0.0 Safari/537.36" version="24.7.14">
  <diagram name="Page-1" id="5yrVtX4aOJBirdRf26Ma">
    <mxGraphModel dx="2070" dy="1255" grid="1" gridSize="10" guides="1" tooltips="1" connect="1" arrows="1" fold="1" page="1" pageScale="1" pageWidth="1200" pageHeight="1920" math="0" shadow="0">
      <root>
        <mxCell id="0" />
        <mxCell id="1" parent="0" />
        <mxCell id="wAouXe5rf_n1GyTMq2Kt-9" value="" style="endArrow=none;html=1;rounded=0;fontColor=#004C99;strokeColor=#004C99;strokeWidth=2;" parent="1" edge="1">
          <mxGeometry width="50" height="50" relative="1" as="geometry">
            <mxPoint x="600" y="1720" as="sourcePoint" />
            <mxPoint x="600" y="80" as="targetPoint" />
          </mxGeometry>
        </mxCell>
        <mxCell id="wAouXe5rf_n1GyTMq2Kt-12" value="" style="group;fillColor=none;" parent="1" vertex="1" connectable="0">
          <mxGeometry x="450" y="20" width="300" height="60" as="geometry" />
        </mxCell>
        <mxCell id="wAouXe5rf_n1GyTMq2Kt-10" value="" style="verticalLabelPosition=bottom;verticalAlign=top;html=1;shape=mxgraph.basic.polygon;polyCoords=[[0.1,0],[0.9,0],[1,0.5],[1,0.5],[0.9,1],[0.1,1],[0,0.5],[0,0.5]];polyline=0;fontColor=#004C99;strokeColor=#004C99;strokeWidth=2;fillColor=#CCE5FF;" parent="wAouXe5rf_n1GyTMq2Kt-12" vertex="1">
          <mxGeometry width="300" height="60" as="geometry" />
        </mxCell>
        <mxCell id="wAouXe5rf_n1GyTMq2Kt-11" value="Flutter Developer Roadmap" style="text;html=1;align=center;verticalAlign=middle;whiteSpace=wrap;rounded=0;fontSize=18;fontColor=#004C99;fontStyle=1" parent="wAouXe5rf_n1GyTMq2Kt-12" vertex="1">
          <mxGeometry x="21.428571428571427" y="15" width="257.1428571428571" height="30" as="geometry" />
        </mxCell>
        <mxCell id="wAouXe5rf_n1GyTMq2Kt-14" value="" style="verticalLabelPosition=bottom;verticalAlign=top;html=1;shape=mxgraph.basic.polygon;polyCoords=[[0.08,0],[0.92,0],[1,0.5],[1,0.5],[0.92,1],[0.08,1],[0,0.5],[0,0.5]];polyline=0;fontColor=#004C99;strokeColor=#004C99;strokeWidth=2;fillColor=#CCE5FF;gradientColor=none;fillStyle=auto;" parent="1" vertex="1">
          <mxGeometry x="340" y="179.97" width="220" height="40" as="geometry" />
        </mxCell>
        <mxCell id="wAouXe5rf_n1GyTMq2Kt-15" value="Development Environment" style="text;html=1;align=center;verticalAlign=middle;whiteSpace=wrap;rounded=0;fontSize=14;fontColor=#004C99;fontStyle=1" parent="1" vertex="1">
          <mxGeometry x="357.5" y="189.97" width="185" height="20" as="geometry" />
        </mxCell>
        <mxCell id="wAouXe5rf_n1GyTMq2Kt-37" value="&lt;font style=&quot;font-size: 12px;&quot;&gt;IDE&lt;/font&gt;" style="text;html=1;align=left;verticalAlign=middle;whiteSpace=wrap;rounded=0;fontSize=14;fontColor=#004C99;fontStyle=0;strokeColor=none;" parent="1" vertex="1">
          <mxGeometry x="209" y="174" width="32" height="20" as="geometry" />
        </mxCell>
        <mxCell id="wAouXe5rf_n1GyTMq2Kt-47" value="" style="verticalLabelPosition=bottom;verticalAlign=top;html=1;shape=mxgraph.basic.polygon;polyCoords=[[0.11,0],[0.89,0],[1,0.5],[1,0.5],[0.89,1],[0.11,1],[0,0.5],[0,0.5]];polyline=0;fontColor=#004C99;strokeColor=#004C99;strokeWidth=2;fillColor=#CCE5FF;gradientColor=none;fillStyle=auto;" parent="1" vertex="1">
          <mxGeometry x="640" y="260" width="110" height="40" as="geometry" />
        </mxCell>
        <mxCell id="wAouXe5rf_n1GyTMq2Kt-48" value="Dart Basics" style="text;html=1;align=center;verticalAlign=middle;whiteSpace=wrap;rounded=0;fontSize=14;fontColor=#004C99;fontStyle=1" parent="1" vertex="1">
          <mxGeometry x="655" y="270" width="80" height="20" as="geometry" />
        </mxCell>
        <mxCell id="wAouXe5rf_n1GyTMq2Kt-58" value="&lt;font style=&quot;font-size: 12px;&quot;&gt;Built-in Types&lt;/font&gt;" style="text;html=1;align=left;verticalAlign=middle;whiteSpace=wrap;rounded=0;fontSize=14;fontColor=#004C99;fontStyle=0" parent="1" vertex="1">
          <mxGeometry x="860" y="240" width="81.5" height="20" as="geometry" />
        </mxCell>
        <mxCell id="wAouXe5rf_n1GyTMq2Kt-60" value="&lt;font style=&quot;font-size: 12px;&quot;&gt;Functions&lt;/font&gt;" style="text;html=1;align=left;verticalAlign=middle;whiteSpace=wrap;rounded=0;fontSize=14;fontColor=#004C99;fontStyle=0" parent="1" vertex="1">
          <mxGeometry x="879" y="270" width="60" height="20" as="geometry" />
        </mxCell>
        <mxCell id="wAouXe5rf_n1GyTMq2Kt-62" value="&lt;font style=&quot;font-size: 12px;&quot;&gt;Operators&lt;/font&gt;" style="text;html=1;align=left;verticalAlign=middle;whiteSpace=wrap;rounded=0;fontSize=14;fontColor=#004C99;fontStyle=0" parent="1" vertex="1">
          <mxGeometry x="878" y="300" width="60" height="20" as="geometry" />
        </mxCell>
        <mxCell id="wAouXe5rf_n1GyTMq2Kt-64" value="&lt;font style=&quot;font-size: 12px;&quot;&gt;Control Flow Statements&lt;/font&gt;" style="text;html=1;align=left;verticalAlign=middle;whiteSpace=wrap;rounded=0;fontSize=14;fontColor=#004C99;fontStyle=0" parent="1" vertex="1">
          <mxGeometry x="800" y="330" width="140" height="20" as="geometry" />
        </mxCell>
        <mxCell id="wAouXe5rf_n1GyTMq2Kt-65" value="&lt;font style=&quot;font-size: 12px;&quot;&gt;Variables&lt;/font&gt;" style="text;html=1;align=left;verticalAlign=middle;whiteSpace=wrap;rounded=0;fontSize=14;fontColor=#004C99;fontStyle=0" parent="1" vertex="1">
          <mxGeometry x="883" y="208" width="57.12" height="20" as="geometry" />
        </mxCell>
        <mxCell id="wAouXe5rf_n1GyTMq2Kt-66" value="&lt;font style=&quot;font-size: 12px;&quot;&gt;Flutter SDK&lt;/font&gt;" style="text;html=1;align=left;verticalAlign=middle;whiteSpace=wrap;rounded=0;fontSize=14;fontColor=#004C99;fontStyle=0;strokeColor=none;" parent="1" vertex="1">
          <mxGeometry x="207" y="206" width="72" height="20" as="geometry" />
        </mxCell>
        <mxCell id="wAouXe5rf_n1GyTMq2Kt-71" value="&lt;font style=&quot;font-size: 12px;&quot;&gt;VS Code&lt;/font&gt;" style="text;html=1;align=left;verticalAlign=middle;whiteSpace=wrap;rounded=0;fontSize=14;fontColor=#004C99;fontStyle=0;strokeColor=none;" parent="1" vertex="1">
          <mxGeometry x="79.25" y="158" width="60" height="20" as="geometry" />
        </mxCell>
        <mxCell id="wAouXe5rf_n1GyTMq2Kt-72" value="&lt;font style=&quot;font-size: 12px;&quot;&gt;Android Studio&lt;/font&gt;" style="text;html=1;align=left;verticalAlign=middle;whiteSpace=wrap;rounded=0;fontSize=14;fontColor=#004C99;fontStyle=0;strokeColor=none;" parent="1" vertex="1">
          <mxGeometry x="79.25" y="188" width="81.5" height="20" as="geometry" />
        </mxCell>
        <mxCell id="wAouXe5rf_n1GyTMq2Kt-76" value="&lt;font style=&quot;font-size: 12px;&quot;&gt;Flutter CLI&lt;/font&gt;" style="text;html=1;align=left;verticalAlign=middle;whiteSpace=wrap;rounded=0;fontSize=14;fontColor=#004C99;fontStyle=0;strokeColor=none;" parent="1" vertex="1">
          <mxGeometry x="90" y="228" width="60" height="20" as="geometry" />
        </mxCell>
        <mxCell id="wAouXe5rf_n1GyTMq2Kt-78" value="" style="verticalLabelPosition=bottom;verticalAlign=top;html=1;shape=mxgraph.basic.polygon;polyCoords=[[0.11,0],[0.89,0],[1,0.5],[1,0.5],[0.89,1],[0.11,1],[0,0.5],[0,0.5]];polyline=0;fontColor=#004C99;strokeColor=#004C99;strokeWidth=2;fillColor=#CCE5FF;gradientColor=none;fillStyle=auto;" parent="1" vertex="1">
          <mxGeometry x="450" y="380" width="110" height="40" as="geometry" />
        </mxCell>
        <mxCell id="wAouXe5rf_n1GyTMq2Kt-79" value="Widgets" style="text;html=1;align=center;verticalAlign=middle;whiteSpace=wrap;rounded=0;fontSize=14;fontColor=#004C99;fontStyle=1" parent="1" vertex="1">
          <mxGeometry x="470" y="390" width="70" height="20" as="geometry" />
        </mxCell>
        <mxCell id="wAouXe5rf_n1GyTMq2Kt-87" value="&lt;span style=&quot;font-size: 12px;&quot;&gt;Stateless Widgets&lt;/span&gt;" style="text;html=1;align=left;verticalAlign=middle;whiteSpace=wrap;rounded=0;fontSize=14;fontColor=#004C99;fontStyle=0" parent="1" vertex="1">
          <mxGeometry x="279" y="330" width="102" height="20" as="geometry" />
        </mxCell>
        <mxCell id="wAouXe5rf_n1GyTMq2Kt-88" value="&lt;span style=&quot;font-size: 12px;&quot;&gt;Stateful Widgets&lt;/span&gt;" style="text;html=1;align=left;verticalAlign=middle;whiteSpace=wrap;rounded=0;fontSize=14;fontColor=#004C99;fontStyle=0" parent="1" vertex="1">
          <mxGeometry x="279" y="360" width="102" height="20" as="geometry" />
        </mxCell>
        <mxCell id="wAouXe5rf_n1GyTMq2Kt-89" value="&lt;span style=&quot;font-size: 12px;&quot;&gt;Inherited Widgets&lt;/span&gt;" style="text;html=1;align=left;verticalAlign=middle;whiteSpace=wrap;rounded=0;fontSize=14;fontColor=#004C99;fontStyle=0" parent="1" vertex="1">
          <mxGeometry x="279" y="390" width="102" height="20" as="geometry" />
        </mxCell>
        <mxCell id="wAouXe5rf_n1GyTMq2Kt-90" value="&lt;span style=&quot;font-size: 12px;&quot;&gt;Responsive Widgets&lt;/span&gt;" style="text;html=1;align=left;verticalAlign=middle;whiteSpace=wrap;rounded=0;fontSize=14;fontColor=#004C99;fontStyle=0" parent="1" vertex="1">
          <mxGeometry x="279" y="420" width="112" height="20" as="geometry" />
        </mxCell>
        <mxCell id="wAouXe5rf_n1GyTMq2Kt-91" value="&lt;span style=&quot;font-size: 12px;&quot;&gt;Styled Widgets&lt;/span&gt;" style="text;html=1;align=left;verticalAlign=middle;whiteSpace=wrap;rounded=0;fontSize=14;fontColor=#004C99;fontStyle=0" parent="1" vertex="1">
          <mxGeometry x="279" y="450" width="92" height="20" as="geometry" />
        </mxCell>
        <mxCell id="wAouXe5rf_n1GyTMq2Kt-95" value="&lt;span style=&quot;font-size: 12px;&quot;&gt;Material Widgets&lt;/span&gt;" style="text;html=1;align=left;verticalAlign=middle;whiteSpace=wrap;rounded=0;fontSize=14;fontColor=#004C99;fontStyle=0" parent="1" vertex="1">
          <mxGeometry x="116" y="435" width="92" height="20" as="geometry" />
        </mxCell>
        <mxCell id="wAouXe5rf_n1GyTMq2Kt-96" value="&lt;span style=&quot;font-size: 12px;&quot;&gt;Cupertino Widgets&lt;/span&gt;" style="text;html=1;align=left;verticalAlign=middle;whiteSpace=wrap;rounded=0;fontSize=14;fontColor=#004C99;fontStyle=0" parent="1" vertex="1">
          <mxGeometry x="115" y="465" width="104" height="20" as="geometry" />
        </mxCell>
        <mxCell id="wAouXe5rf_n1GyTMq2Kt-98" value="" style="verticalLabelPosition=bottom;verticalAlign=top;html=1;shape=mxgraph.basic.polygon;polyCoords=[[0.11,0],[0.89,0],[1,0.5],[1,0.5],[0.89,1],[0.11,1],[0,0.5],[0,0.5]];polyline=0;fontColor=#004C99;strokeColor=#004C99;strokeWidth=2;fillColor=#CCE5FF;gradientColor=none;fillStyle=auto;" parent="1" vertex="1">
          <mxGeometry x="640" y="460" width="110" height="40" as="geometry" />
        </mxCell>
        <mxCell id="wAouXe5rf_n1GyTMq2Kt-99" value="Assets" style="text;html=1;align=center;verticalAlign=middle;whiteSpace=wrap;rounded=0;fontSize=14;fontColor=#004C99;fontStyle=1" parent="1" vertex="1">
          <mxGeometry x="660" y="470" width="70" height="20" as="geometry" />
        </mxCell>
        <mxCell id="wAouXe5rf_n1GyTMq2Kt-105" value="&lt;font style=&quot;font-size: 12px;&quot;&gt;Fonts&lt;/font&gt;" style="text;html=1;align=left;verticalAlign=middle;whiteSpace=wrap;rounded=0;fontSize=14;fontColor=#004C99;fontStyle=0" parent="1" vertex="1">
          <mxGeometry x="826.62" y="440" width="40" height="20" as="geometry" />
        </mxCell>
        <mxCell id="wAouXe5rf_n1GyTMq2Kt-106" value="&lt;font style=&quot;font-size: 12px;&quot;&gt;Images&lt;/font&gt;" style="text;html=1;align=left;verticalAlign=middle;whiteSpace=wrap;rounded=0;fontSize=14;fontColor=#004C99;fontStyle=0" parent="1" vertex="1">
          <mxGeometry x="818" y="470" width="40" height="20" as="geometry" />
        </mxCell>
        <mxCell id="wAouXe5rf_n1GyTMq2Kt-107" value="&lt;font style=&quot;font-size: 12px;&quot;&gt;Other files&lt;/font&gt;" style="text;html=1;align=left;verticalAlign=middle;whiteSpace=wrap;rounded=0;fontSize=14;fontColor=#004C99;fontStyle=0" parent="1" vertex="1">
          <mxGeometry x="800" y="500" width="58" height="20" as="geometry" />
        </mxCell>
        <mxCell id="wAouXe5rf_n1GyTMq2Kt-109" value="" style="verticalLabelPosition=bottom;verticalAlign=top;html=1;shape=mxgraph.basic.polygon;polyCoords=[[0.11,0],[0.89,0],[1,0.5],[1,0.5],[0.89,1],[0.11,1],[0,0.5],[0,0.5]];polyline=0;fontColor=#004C99;strokeColor=#004C99;strokeWidth=2;fillColor=#CCE5FF;gradientColor=none;fillStyle=auto;" parent="1" vertex="1">
          <mxGeometry x="490" y="540" width="70" height="40" as="geometry" />
        </mxCell>
        <mxCell id="wAouXe5rf_n1GyTMq2Kt-110" value="Git" style="text;html=1;align=center;verticalAlign=middle;whiteSpace=wrap;rounded=0;fontSize=14;fontColor=#004C99;fontStyle=1" parent="1" vertex="1">
          <mxGeometry x="505" y="550" width="40" height="20" as="geometry" />
        </mxCell>
        <mxCell id="wAouXe5rf_n1GyTMq2Kt-116" value="&lt;span style=&quot;font-size: 12px;&quot;&gt;GitHub&lt;/span&gt;" style="text;html=1;align=left;verticalAlign=middle;whiteSpace=wrap;rounded=0;fontSize=14;fontColor=#004C99;fontStyle=0" parent="1" vertex="1">
          <mxGeometry x="371" y="520" width="40" height="20" as="geometry" />
        </mxCell>
        <mxCell id="wAouXe5rf_n1GyTMq2Kt-117" value="&lt;span style=&quot;font-size: 12px;&quot;&gt;GitLab&lt;/span&gt;" style="text;html=1;align=left;verticalAlign=middle;whiteSpace=wrap;rounded=0;fontSize=14;fontColor=#004C99;fontStyle=0" parent="1" vertex="1">
          <mxGeometry x="371" y="550" width="40" height="20" as="geometry" />
        </mxCell>
        <mxCell id="wAouXe5rf_n1GyTMq2Kt-118" value="&lt;span style=&quot;font-size: 12px;&quot;&gt;Bitbucket&lt;/span&gt;" style="text;html=1;align=left;verticalAlign=middle;whiteSpace=wrap;rounded=0;fontSize=14;fontColor=#004C99;fontStyle=0" parent="1" vertex="1">
          <mxGeometry x="371" y="580" width="50" height="20" as="geometry" />
        </mxCell>
        <mxCell id="wAouXe5rf_n1GyTMq2Kt-120" value="" style="verticalLabelPosition=bottom;verticalAlign=top;html=1;shape=mxgraph.basic.polygon;polyCoords=[[0.11,0],[0.89,0],[1,0.5],[1,0.5],[0.89,1],[0.11,1],[0,0.5],[0,0.5]];polyline=0;fontColor=#004C99;strokeColor=#004C99;strokeWidth=2;fillColor=#CCE5FF;gradientColor=none;fillStyle=auto;" parent="1" vertex="1">
          <mxGeometry x="640" y="620" width="160" height="40" as="geometry" />
        </mxCell>
        <mxCell id="wAouXe5rf_n1GyTMq2Kt-121" value="Package Manager" style="text;html=1;align=center;verticalAlign=middle;whiteSpace=wrap;rounded=0;fontSize=14;fontColor=#004C99;fontStyle=1" parent="1" vertex="1">
          <mxGeometry x="657.5" y="630" width="130" height="20" as="geometry" />
        </mxCell>
        <mxCell id="wAouXe5rf_n1GyTMq2Kt-123" value="&lt;font style=&quot;font-size: 12px;&quot;&gt;pub.dev&lt;/font&gt;" style="text;html=1;align=left;verticalAlign=middle;whiteSpace=wrap;rounded=0;fontSize=14;fontColor=#004C99;fontStyle=0" parent="1" vertex="1">
          <mxGeometry x="944" y="598" width="48" height="20" as="geometry" />
        </mxCell>
        <mxCell id="wAouXe5rf_n1GyTMq2Kt-128" value="&lt;span style=&quot;font-size: 12px;&quot;&gt;Package stored on Git repo&lt;/span&gt;" style="text;html=1;align=left;verticalAlign=middle;whiteSpace=wrap;rounded=0;fontSize=14;fontColor=#004C99;fontStyle=0" parent="1" vertex="1">
          <mxGeometry x="840" y="630" width="163.75" height="20" as="geometry" />
        </mxCell>
        <mxCell id="wAouXe5rf_n1GyTMq2Kt-129" value="&lt;span style=&quot;font-size: 12px;&quot;&gt;Local package&lt;/span&gt;" style="text;html=1;align=left;verticalAlign=middle;whiteSpace=wrap;rounded=0;fontSize=14;fontColor=#004C99;fontStyle=0" parent="1" vertex="1">
          <mxGeometry x="908" y="658" width="95" height="20" as="geometry" />
        </mxCell>
        <mxCell id="wAouXe5rf_n1GyTMq2Kt-131" value="" style="verticalLabelPosition=bottom;verticalAlign=top;html=1;shape=mxgraph.basic.polygon;polyCoords=[[0.08,0],[0.92,0],[1,0.5],[1,0.5],[0.92,1],[0.08,1],[0,0.5],[0,0.5]];polyline=0;fontColor=#004C99;strokeColor=#004C99;strokeWidth=2;fillColor=#CCE5FF;gradientColor=none;fillStyle=auto;" parent="1" vertex="1">
          <mxGeometry x="400" y="700" width="160" height="40" as="geometry" />
        </mxCell>
        <mxCell id="wAouXe5rf_n1GyTMq2Kt-132" value="Design Principles" style="text;html=1;align=center;verticalAlign=middle;whiteSpace=wrap;rounded=0;fontSize=14;fontColor=#004C99;fontStyle=1" parent="1" vertex="1">
          <mxGeometry x="417.5" y="710" width="127.5" height="20" as="geometry" />
        </mxCell>
        <mxCell id="wAouXe5rf_n1GyTMq2Kt-139" value="&lt;span style=&quot;font-size: 12px;&quot;&gt;OOP&lt;/span&gt;" style="text;html=1;align=left;verticalAlign=middle;whiteSpace=wrap;rounded=0;fontSize=14;fontColor=#004C99;fontStyle=0" parent="1" vertex="1">
          <mxGeometry x="246.5" y="680" width="31.75" height="20" as="geometry" />
        </mxCell>
        <mxCell id="wAouXe5rf_n1GyTMq2Kt-140" value="&lt;span style=&quot;font-size: 12px;&quot;&gt;Design Patterns&lt;/span&gt;" style="text;html=1;align=left;verticalAlign=middle;whiteSpace=wrap;rounded=0;fontSize=14;fontColor=#004C99;fontStyle=0" parent="1" vertex="1">
          <mxGeometry x="245.39999999999998" y="710" width="100" height="20" as="geometry" />
        </mxCell>
        <mxCell id="wAouXe5rf_n1GyTMq2Kt-141" value="&lt;span style=&quot;font-size: 12px;&quot;&gt;SOLID Principles&lt;/span&gt;" style="text;html=1;align=left;verticalAlign=middle;whiteSpace=wrap;rounded=0;fontSize=14;fontColor=#004C99;fontStyle=0" parent="1" vertex="1">
          <mxGeometry x="245.4" y="740" width="94.6" height="20" as="geometry" />
        </mxCell>
        <mxCell id="wAouXe5rf_n1GyTMq2Kt-144" value="" style="verticalLabelPosition=bottom;verticalAlign=top;html=1;shape=mxgraph.basic.polygon;polyCoords=[[0.11,0],[0.89,0],[1,0.5],[1,0.5],[0.89,1],[0.11,1],[0,0.5],[0,0.5]];polyline=0;fontColor=#004C99;strokeColor=#004C99;strokeWidth=2;fillColor=#CCE5FF;gradientColor=none;fillStyle=auto;" parent="1" vertex="1">
          <mxGeometry x="640" y="780" width="90" height="40" as="geometry" />
        </mxCell>
        <mxCell id="wAouXe5rf_n1GyTMq2Kt-145" value="Storage" style="text;html=1;align=center;verticalAlign=middle;whiteSpace=wrap;rounded=0;fontSize=14;fontColor=#004C99;fontStyle=1" parent="1" vertex="1">
          <mxGeometry x="645" y="790" width="80" height="20" as="geometry" />
        </mxCell>
        <mxCell id="wAouXe5rf_n1GyTMq2Kt-151" value="&lt;span style=&quot;font-size: 12px;&quot;&gt;Shared Preferences&lt;/span&gt;" style="text;html=1;align=left;verticalAlign=middle;whiteSpace=wrap;rounded=0;fontSize=14;fontColor=#004C99;fontStyle=0" parent="1" vertex="1">
          <mxGeometry x="770" y="760" width="115" height="20" as="geometry" />
        </mxCell>
        <mxCell id="wAouXe5rf_n1GyTMq2Kt-152" value="&lt;span style=&quot;font-size: 12px;&quot;&gt;SQLite&lt;/span&gt;" style="text;html=1;align=left;verticalAlign=middle;whiteSpace=wrap;rounded=0;fontSize=14;fontColor=#004C99;fontStyle=0" parent="1" vertex="1">
          <mxGeometry x="840" y="790" width="45" height="20" as="geometry" />
        </mxCell>
        <mxCell id="wAouXe5rf_n1GyTMq2Kt-153" value="&lt;span style=&quot;font-size: 12px;&quot;&gt;Firebase&lt;/span&gt;" style="text;html=1;align=left;verticalAlign=middle;whiteSpace=wrap;rounded=0;fontSize=14;fontColor=#004C99;fontStyle=0" parent="1" vertex="1">
          <mxGeometry x="833" y="820" width="45" height="20" as="geometry" />
        </mxCell>
        <mxCell id="wAouXe5rf_n1GyTMq2Kt-155" value="" style="verticalLabelPosition=bottom;verticalAlign=top;html=1;shape=mxgraph.basic.polygon;polyCoords=[[0.11,0],[0.89,0],[1,0.5],[1,0.5],[0.89,1],[0.11,1],[0,0.5],[0,0.5]];polyline=0;fontColor=#004C99;strokeColor=#004C99;strokeWidth=2;fillColor=#CCE5FF;gradientColor=none;fillStyle=auto;" parent="1" vertex="1">
          <mxGeometry x="470" y="860" width="90" height="40" as="geometry" />
        </mxCell>
        <mxCell id="wAouXe5rf_n1GyTMq2Kt-156" value="API" style="text;html=1;align=center;verticalAlign=middle;whiteSpace=wrap;rounded=0;fontSize=14;fontColor=#004C99;fontStyle=1" parent="1" vertex="1">
          <mxGeometry x="475" y="870" width="80" height="20" as="geometry" />
        </mxCell>
        <mxCell id="wAouXe5rf_n1GyTMq2Kt-162" value="&lt;span style=&quot;font-size: 12px;&quot;&gt;REST&lt;/span&gt;" style="text;html=1;align=left;verticalAlign=middle;whiteSpace=wrap;rounded=0;fontSize=14;fontColor=#004C99;fontStyle=0" parent="1" vertex="1">
          <mxGeometry x="331" y="840" width="40" height="20" as="geometry" />
        </mxCell>
        <mxCell id="wAouXe5rf_n1GyTMq2Kt-163" value="&lt;span style=&quot;font-size: 12px;&quot;&gt;GraphQL&lt;/span&gt;" style="text;html=1;align=left;verticalAlign=middle;whiteSpace=wrap;rounded=0;fontSize=14;fontColor=#004C99;fontStyle=0" parent="1" vertex="1">
          <mxGeometry x="331" y="870" width="50" height="20" as="geometry" />
        </mxCell>
        <mxCell id="wAouXe5rf_n1GyTMq2Kt-164" value="&lt;span style=&quot;font-size: 12px;&quot;&gt;Web Sockets&lt;/span&gt;" style="text;html=1;align=left;verticalAlign=middle;whiteSpace=wrap;rounded=0;fontSize=14;fontColor=#004C99;fontStyle=0" parent="1" vertex="1">
          <mxGeometry x="331" y="898" width="80.87" height="20" as="geometry" />
        </mxCell>
        <mxCell id="wAouXe5rf_n1GyTMq2Kt-166" value="" style="verticalLabelPosition=bottom;verticalAlign=top;html=1;shape=mxgraph.basic.polygon;polyCoords=[[0.11,0],[0.89,0],[1,0.5],[1,0.5],[0.89,1],[0.11,1],[0,0.5],[0,0.5]];polyline=0;fontColor=#004C99;strokeColor=#004C99;strokeWidth=2;fillColor=#CCE5FF;gradientColor=none;fillStyle=auto;" parent="1" vertex="1">
          <mxGeometry x="640" y="1100" width="130" height="40" as="geometry" />
        </mxCell>
        <mxCell id="wAouXe5rf_n1GyTMq2Kt-167" value="Authentication" style="text;html=1;align=center;verticalAlign=middle;whiteSpace=wrap;rounded=0;fontSize=14;fontColor=#004C99;fontStyle=1" parent="1" vertex="1">
          <mxGeometry x="660" y="1110" width="90" height="20" as="geometry" />
        </mxCell>
        <mxCell id="wAouXe5rf_n1GyTMq2Kt-175" value="" style="verticalLabelPosition=bottom;verticalAlign=top;html=1;shape=mxgraph.basic.polygon;polyCoords=[[0.11,0],[0.89,0],[1,0.5],[1,0.5],[0.89,1],[0.11,1],[0,0.5],[0,0.5]];polyline=0;fontColor=#004C99;strokeColor=#004C99;strokeWidth=2;fillColor=#CCE5FF;gradientColor=none;fillStyle=auto;" parent="1" vertex="1">
          <mxGeometry x="400" y="1180" width="160" height="40" as="geometry" />
        </mxCell>
        <mxCell id="wAouXe5rf_n1GyTMq2Kt-176" value="Push Notifications" style="text;html=1;align=center;verticalAlign=middle;whiteSpace=wrap;rounded=0;fontSize=14;fontColor=#004C99;fontStyle=1" parent="1" vertex="1">
          <mxGeometry x="412.5" y="1190" width="135" height="20" as="geometry" />
        </mxCell>
        <mxCell id="wAouXe5rf_n1GyTMq2Kt-181" value="&lt;span style=&quot;font-size: 12px;&quot;&gt;Firebase&lt;/span&gt;" style="text;html=1;align=left;verticalAlign=middle;whiteSpace=wrap;rounded=0;fontSize=14;fontColor=#004C99;fontStyle=0" parent="1" vertex="1">
          <mxGeometry x="296" y="1173" width="45" height="20" as="geometry" />
        </mxCell>
        <mxCell id="wAouXe5rf_n1GyTMq2Kt-182" value="&lt;span style=&quot;font-size: 12px;&quot;&gt;Custom&lt;/span&gt;" style="text;html=1;align=left;verticalAlign=middle;whiteSpace=wrap;rounded=0;fontSize=14;fontColor=#004C99;fontStyle=0" parent="1" vertex="1">
          <mxGeometry x="296" y="1204" width="45" height="20" as="geometry" />
        </mxCell>
        <mxCell id="wAouXe5rf_n1GyTMq2Kt-185" value="" style="verticalLabelPosition=bottom;verticalAlign=top;html=1;shape=mxgraph.basic.polygon;polyCoords=[[0.11,0],[0.89,0],[1,0.5],[1,0.5],[0.89,1],[0.11,1],[0,0.5],[0,0.5]];polyline=0;fontColor=#004C99;strokeColor=#004C99;strokeWidth=2;fillColor=#CCE5FF;gradientColor=none;fillStyle=auto;" parent="1" vertex="1">
          <mxGeometry x="640" y="940" width="160" height="40" as="geometry" />
        </mxCell>
        <mxCell id="wAouXe5rf_n1GyTMq2Kt-186" value="Advanced Dart" style="text;html=1;align=center;verticalAlign=middle;whiteSpace=wrap;rounded=0;fontSize=14;fontColor=#004C99;fontStyle=1" parent="1" vertex="1">
          <mxGeometry x="652.5" y="950" width="135" height="20" as="geometry" />
        </mxCell>
        <mxCell id="wAouXe5rf_n1GyTMq2Kt-194" value="&lt;span style=&quot;font-size: 12px;&quot;&gt;Core packages&lt;/span&gt;" style="text;html=1;align=left;verticalAlign=middle;whiteSpace=wrap;rounded=0;fontSize=14;fontColor=#004C99;fontStyle=0" parent="1" vertex="1">
          <mxGeometry x="872" y="890" width="88.5" height="20" as="geometry" />
        </mxCell>
        <mxCell id="wAouXe5rf_n1GyTMq2Kt-195" value="&lt;span style=&quot;font-size: 12px;&quot;&gt;Collections&lt;/span&gt;" style="text;html=1;align=left;verticalAlign=middle;whiteSpace=wrap;rounded=0;fontSize=14;fontColor=#004C99;fontStyle=0" parent="1" vertex="1">
          <mxGeometry x="894" y="920" width="61" height="20" as="geometry" />
        </mxCell>
        <mxCell id="wAouXe5rf_n1GyTMq2Kt-196" value="&lt;span style=&quot;font-size: 12px;&quot;&gt;Lambdas&lt;/span&gt;&lt;span style=&quot;font-family: monospace; font-size: 0px; text-wrap: nowrap;&quot;&gt;%3CmxGraphModel%3E%3Croot%3E%3CmxCell%20id%3D%220%22%2F%3E%3CmxCell%20id%3D%221%22%20parent%3D%220%22%2F%3E%3CmxCell%20id%3D%222%22%20value%3D%22%26lt%3Bspan%20style%3D%26quot%3Bfont-size%3A%2012px%3B%26quot%3B%26gt%3BCollections%26lt%3B%2Fspan%26gt%3B%22%20style%3D%22text%3Bhtml%3D1%3Balign%3Dleft%3BverticalAlign%3Dmiddle%3BwhiteSpace%3Dwrap%3Brounded%3D0%3BfontSize%3D14%3BfontColor%3D%23990000%3BfontStyle%3D0%22%20vertex%3D%221%22%20parent%3D%221%22%3E%3CmxGeometry%20x%3D%22918%22%20y%3D%22900%22%20width%3D%2270.25%22%20height%3D%2220%22%20as%3D%22geometry%22%2F%3E%3C%2FmxCell%3E%3C%2Froot%3E%3C%2FmxGraphModel%3E&lt;/span&gt;" style="text;html=1;align=left;verticalAlign=middle;whiteSpace=wrap;rounded=0;fontSize=14;fontColor=#004C99;fontStyle=0" parent="1" vertex="1">
          <mxGeometry x="904" y="949" width="60.25" height="20" as="geometry" />
        </mxCell>
        <mxCell id="wAouXe5rf_n1GyTMq2Kt-197" value="&lt;span style=&quot;font-size: 12px;&quot;&gt;Isolates&lt;/span&gt;" style="text;html=1;align=left;verticalAlign=middle;whiteSpace=wrap;rounded=0;fontSize=14;fontColor=#004C99;fontStyle=0" parent="1" vertex="1">
          <mxGeometry x="912" y="1008" width="45.87" height="20" as="geometry" />
        </mxCell>
        <mxCell id="wAouXe5rf_n1GyTMq2Kt-198" value="&lt;span style=&quot;font-size: 12px;&quot;&gt;Async/Await&lt;/span&gt;" style="text;html=1;align=left;verticalAlign=middle;whiteSpace=wrap;rounded=0;fontSize=14;fontColor=#004C99;fontStyle=0" parent="1" vertex="1">
          <mxGeometry x="887" y="980" width="70.25" height="20" as="geometry" />
        </mxCell>
        <mxCell id="wAouXe5rf_n1GyTMq2Kt-200" value="" style="verticalLabelPosition=bottom;verticalAlign=top;html=1;shape=mxgraph.basic.polygon;polyCoords=[[0.11,0],[0.89,0],[1,0.5],[1,0.5],[0.89,1],[0.11,1],[0,0.5],[0,0.5]];polyline=0;fontColor=#004C99;strokeColor=#004C99;strokeWidth=2;fillColor=#CCE5FF;gradientColor=none;fillStyle=auto;" parent="1" vertex="1">
          <mxGeometry x="400" y="1020" width="160" height="40" as="geometry" />
        </mxCell>
        <mxCell id="wAouXe5rf_n1GyTMq2Kt-201" value="State Management" style="text;html=1;align=center;verticalAlign=middle;whiteSpace=wrap;rounded=0;fontSize=14;fontColor=#004C99;fontStyle=1" parent="1" vertex="1">
          <mxGeometry x="412.5" y="1030" width="135" height="20" as="geometry" />
        </mxCell>
        <mxCell id="wAouXe5rf_n1GyTMq2Kt-210" value="&lt;span style=&quot;font-size: 12px;&quot;&gt;BLoC&lt;/span&gt;" style="text;html=1;align=left;verticalAlign=middle;whiteSpace=wrap;rounded=0;fontSize=14;fontColor=#004C99;fontStyle=0" parent="1" vertex="1">
          <mxGeometry x="258" y="1000" width="37.25" height="20" as="geometry" />
        </mxCell>
        <mxCell id="wAouXe5rf_n1GyTMq2Kt-212" value="&lt;span style=&quot;font-size: 12px;&quot;&gt;GetX&lt;/span&gt;" style="text;html=1;align=left;verticalAlign=middle;whiteSpace=wrap;rounded=0;fontSize=14;fontColor=#004C99;fontStyle=0" parent="1" vertex="1">
          <mxGeometry x="258" y="1059" width="35.25" height="20" as="geometry" />
        </mxCell>
        <mxCell id="wAouXe5rf_n1GyTMq2Kt-213" value="&lt;span style=&quot;font-size: 12px;&quot;&gt;Riverpod&lt;/span&gt;" style="text;html=1;align=left;verticalAlign=middle;whiteSpace=wrap;rounded=0;fontSize=14;fontColor=#004C99;fontStyle=0" parent="1" vertex="1">
          <mxGeometry x="258" y="1090" width="55.25" height="20" as="geometry" />
        </mxCell>
        <mxCell id="wAouXe5rf_n1GyTMq2Kt-216" value="" style="verticalLabelPosition=bottom;verticalAlign=top;html=1;shape=mxgraph.basic.polygon;polyCoords=[[0.11,0],[0.89,0],[1,0.5],[1,0.5],[0.89,1],[0.11,1],[0,0.5],[0,0.5]];polyline=0;fontColor=#004C99;strokeColor=#004C99;strokeWidth=2;fillColor=#CCE5FF;gradientColor=none;fillStyle=auto;" parent="1" vertex="1">
          <mxGeometry x="640" y="1260" width="100" height="40" as="geometry" />
        </mxCell>
        <mxCell id="wAouXe5rf_n1GyTMq2Kt-217" value="Testing" style="text;html=1;align=center;verticalAlign=middle;whiteSpace=wrap;rounded=0;fontSize=14;fontColor=#004C99;fontStyle=1" parent="1" vertex="1">
          <mxGeometry x="652.5" y="1270" width="75" height="20" as="geometry" />
        </mxCell>
        <mxCell id="wAouXe5rf_n1GyTMq2Kt-223" value="&lt;span style=&quot;font-size: 12px;&quot;&gt;Unit Testing&lt;/span&gt;" style="text;html=1;align=left;verticalAlign=middle;whiteSpace=wrap;rounded=0;fontSize=14;fontColor=#004C99;fontStyle=0" parent="1" vertex="1">
          <mxGeometry x="829" y="1240" width="70" height="20" as="geometry" />
        </mxCell>
        <mxCell id="wAouXe5rf_n1GyTMq2Kt-224" value="&lt;span style=&quot;font-size: 12px;&quot;&gt;Widget Testing&lt;/span&gt;" style="text;html=1;align=left;verticalAlign=middle;whiteSpace=wrap;rounded=0;fontSize=14;fontColor=#004C99;fontStyle=0" parent="1" vertex="1">
          <mxGeometry x="812.62" y="1270" width="85" height="20" as="geometry" />
        </mxCell>
        <mxCell id="wAouXe5rf_n1GyTMq2Kt-225" value="&lt;span style=&quot;font-size: 12px;&quot;&gt;Integration Testing&lt;/span&gt;" style="text;html=1;align=left;verticalAlign=middle;whiteSpace=wrap;rounded=0;fontSize=14;fontColor=#004C99;fontStyle=0" parent="1" vertex="1">
          <mxGeometry x="790.62" y="1299" width="107" height="20" as="geometry" />
        </mxCell>
        <mxCell id="wAouXe5rf_n1GyTMq2Kt-227" value="" style="verticalLabelPosition=bottom;verticalAlign=top;html=1;shape=mxgraph.basic.polygon;polyCoords=[[0.11,0],[0.89,0],[1,0.5],[1,0.5],[0.89,1],[0.11,1],[0,0.5],[0,0.5]];polyline=0;fontColor=#004C99;strokeColor=#004C99;strokeWidth=2;fillColor=#CCE5FF;gradientColor=none;fillStyle=auto;" parent="1" vertex="1">
          <mxGeometry x="440" y="1340" width="120" height="40" as="geometry" />
        </mxCell>
        <mxCell id="wAouXe5rf_n1GyTMq2Kt-228" value="Dev Tools" style="text;html=1;align=center;verticalAlign=middle;whiteSpace=wrap;rounded=0;fontSize=14;fontColor=#004C99;fontStyle=1" parent="1" vertex="1">
          <mxGeometry x="455" y="1350" width="90" height="20" as="geometry" />
        </mxCell>
        <mxCell id="wAouXe5rf_n1GyTMq2Kt-234" value="&lt;span style=&quot;font-size: 12px;&quot;&gt;Flutter Inspector&lt;/span&gt;" style="text;html=1;align=left;verticalAlign=middle;whiteSpace=wrap;rounded=0;fontSize=14;fontColor=#004C99;fontStyle=0" parent="1" vertex="1">
          <mxGeometry x="277.5" y="1318" width="102.5" height="20" as="geometry" />
        </mxCell>
        <mxCell id="wAouXe5rf_n1GyTMq2Kt-235" value="&lt;span style=&quot;font-size: 12px;&quot;&gt;Flutter Outline&lt;/span&gt;" style="text;html=1;align=left;verticalAlign=middle;whiteSpace=wrap;rounded=0;fontSize=14;fontColor=#004C99;fontStyle=0" parent="1" vertex="1">
          <mxGeometry x="278.25" y="1350" width="102.5" height="20" as="geometry" />
        </mxCell>
        <mxCell id="wAouXe5rf_n1GyTMq2Kt-236" value="&lt;span style=&quot;font-size: 12px;&quot;&gt;Memory Allocation&lt;/span&gt;" style="text;html=1;align=left;verticalAlign=middle;whiteSpace=wrap;rounded=0;fontSize=14;fontColor=#004C99;fontStyle=0" parent="1" vertex="1">
          <mxGeometry x="278" y="1377" width="102.5" height="20" as="geometry" />
        </mxCell>
        <mxCell id="wAouXe5rf_n1GyTMq2Kt-238" value="" style="verticalLabelPosition=bottom;verticalAlign=top;html=1;shape=mxgraph.basic.polygon;polyCoords=[[0.11,0],[0.89,0],[1,0.5],[1,0.5],[0.89,1],[0.11,1],[0,0.5],[0,0.5]];polyline=0;fontColor=#004C99;strokeColor=#004C99;strokeWidth=2;fillColor=#CCE5FF;gradientColor=none;fillStyle=auto;" parent="1" vertex="1">
          <mxGeometry x="640" y="1420" width="170" height="40" as="geometry" />
        </mxCell>
        <mxCell id="wAouXe5rf_n1GyTMq2Kt-239" value="Internationalization" style="text;html=1;align=center;verticalAlign=middle;whiteSpace=wrap;rounded=0;fontSize=14;fontColor=#004C99;fontStyle=1" parent="1" vertex="1">
          <mxGeometry x="660" y="1430" width="135" height="20" as="geometry" />
        </mxCell>
        <mxCell id="wAouXe5rf_n1GyTMq2Kt-243" value="&lt;span style=&quot;font-size: 12px;&quot;&gt;Localization package&lt;/span&gt;" style="text;html=1;align=left;verticalAlign=middle;whiteSpace=wrap;rounded=0;fontSize=14;fontColor=#004C99;fontStyle=0" parent="1" vertex="1">
          <mxGeometry x="851.5" y="1414" width="121.5" height="20" as="geometry" />
        </mxCell>
        <mxCell id="wAouXe5rf_n1GyTMq2Kt-247" value="&lt;span style=&quot;font-size: 12px;&quot;&gt;intl&lt;/span&gt;" style="text;html=1;align=left;verticalAlign=middle;whiteSpace=wrap;rounded=0;fontSize=14;fontColor=#004C99;fontStyle=0" parent="1" vertex="1">
          <mxGeometry x="1090" y="1398" width="21.5" height="20" as="geometry" />
        </mxCell>
        <mxCell id="wAouXe5rf_n1GyTMq2Kt-248" value="&lt;span style=&quot;font-size: 12px;&quot;&gt;easy_localization&lt;/span&gt;" style="text;html=1;align=left;verticalAlign=middle;whiteSpace=wrap;rounded=0;fontSize=14;fontColor=#004C99;fontStyle=0" parent="1" vertex="1">
          <mxGeometry x="1014" y="1428" width="91.5" height="20" as="geometry" />
        </mxCell>
        <mxCell id="wAouXe5rf_n1GyTMq2Kt-250" value="&lt;span style=&quot;font-size: 12px;&quot;&gt;Translation&lt;/span&gt;" style="text;html=1;align=left;verticalAlign=middle;whiteSpace=wrap;rounded=0;fontSize=14;fontColor=#004C99;fontStyle=0" parent="1" vertex="1">
          <mxGeometry x="904" y="1443" width="66.5" height="20" as="geometry" />
        </mxCell>
        <mxCell id="wAouXe5rf_n1GyTMq2Kt-255" value="&lt;span style=&quot;font-size: 12px;&quot;&gt;Google Sheets&lt;/span&gt;" style="text;html=1;align=left;verticalAlign=middle;whiteSpace=wrap;rounded=0;fontSize=14;fontColor=#004C99;fontStyle=0" parent="1" vertex="1">
          <mxGeometry x="1016" y="1459" width="86" height="20" as="geometry" />
        </mxCell>
        <mxCell id="wAouXe5rf_n1GyTMq2Kt-256" value="&lt;span style=&quot;font-size: 12px;&quot;&gt;Localizely&lt;/span&gt;" style="text;html=1;align=left;verticalAlign=middle;whiteSpace=wrap;rounded=0;fontSize=14;fontColor=#004C99;fontStyle=0" parent="1" vertex="1">
          <mxGeometry x="1041" y="1490" width="60" height="20" as="geometry" />
        </mxCell>
        <mxCell id="wAouXe5rf_n1GyTMq2Kt-257" value="&lt;span style=&quot;font-size: 12px;&quot;&gt;POEditor&lt;/span&gt;" style="text;html=1;align=left;verticalAlign=middle;whiteSpace=wrap;rounded=0;fontSize=14;fontColor=#004C99;fontStyle=0" parent="1" vertex="1">
          <mxGeometry x="1045" y="1518" width="50" height="20" as="geometry" />
        </mxCell>
        <mxCell id="wAouXe5rf_n1GyTMq2Kt-259" value="" style="verticalLabelPosition=bottom;verticalAlign=top;html=1;shape=mxgraph.basic.polygon;polyCoords=[[0.11,0],[0.89,0],[1,0.5],[1,0.5],[0.89,1],[0.11,1],[0,0.5],[0,0.5]];polyline=0;fontColor=#004C99;strokeColor=#004C99;strokeWidth=2;fillColor=#CCE5FF;gradientColor=none;fillStyle=auto;" parent="1" vertex="1">
          <mxGeometry x="640" y="1580" width="120" height="40" as="geometry" />
        </mxCell>
        <mxCell id="wAouXe5rf_n1GyTMq2Kt-260" value="Deployment" style="text;html=1;align=center;verticalAlign=middle;whiteSpace=wrap;rounded=0;fontSize=14;fontColor=#004C99;fontStyle=1" parent="1" vertex="1">
          <mxGeometry x="657.5" y="1590" width="90" height="20" as="geometry" />
        </mxCell>
        <mxCell id="wAouXe5rf_n1GyTMq2Kt-270" value="" style="endArrow=none;html=1;rounded=0;strokeColor=#004C99;strokeWidth=2;edgeStyle=orthogonalEdgeStyle;curved=1;" parent="1" edge="1">
          <mxGeometry width="50" height="50" relative="1" as="geometry">
            <mxPoint x="600" y="1590" as="sourcePoint" />
            <mxPoint x="610" y="1600" as="targetPoint" />
            <Array as="points">
              <mxPoint x="600" y="1600" />
            </Array>
          </mxGeometry>
        </mxCell>
        <mxCell id="wAouXe5rf_n1GyTMq2Kt-271" value="" style="verticalLabelPosition=bottom;verticalAlign=top;html=1;shape=mxgraph.basic.polygon;polyCoords=[[0.11,0],[0.89,0],[1,0.5],[1,0.5],[0.89,1],[0.11,1],[0,0.5],[0,0.5]];polyline=0;fontColor=#004C99;strokeColor=#004C99;strokeWidth=2;fillColor=#CCE5FF;gradientColor=none;fillStyle=auto;" parent="1" vertex="1">
          <mxGeometry x="440" y="1500" width="120" height="40" as="geometry" />
        </mxCell>
        <mxCell id="wAouXe5rf_n1GyTMq2Kt-272" value="Analytics" style="text;html=1;align=center;verticalAlign=middle;whiteSpace=wrap;rounded=0;fontSize=14;fontColor=#004C99;fontStyle=1" parent="1" vertex="1">
          <mxGeometry x="457.5" y="1510" width="90" height="20" as="geometry" />
        </mxCell>
        <mxCell id="wAouXe5rf_n1GyTMq2Kt-278" value="&lt;span style=&quot;font-size: 12px;&quot;&gt;Firebase Analytics&lt;/span&gt;" style="text;html=1;align=left;verticalAlign=middle;whiteSpace=wrap;rounded=0;fontSize=14;fontColor=#004C99;fontStyle=0" parent="1" vertex="1">
          <mxGeometry x="285" y="1524" width="102.5" height="20" as="geometry" />
        </mxCell>
        <mxCell id="wAouXe5rf_n1GyTMq2Kt-279" value="&lt;span style=&quot;font-size: 12px;&quot;&gt;Google Analytics&lt;/span&gt;" style="text;html=1;align=left;verticalAlign=middle;whiteSpace=wrap;rounded=0;fontSize=14;fontColor=#004C99;fontStyle=0" parent="1" vertex="1">
          <mxGeometry x="285" y="1494" width="96.27" height="20" as="geometry" />
        </mxCell>
        <mxCell id="wAouXe5rf_n1GyTMq2Kt-280" value="Keep Learning :)" style="text;html=1;align=center;verticalAlign=middle;whiteSpace=wrap;rounded=0;fontSize=14;fontColor=#004C99;fontStyle=1" parent="1" vertex="1">
          <mxGeometry x="540" y="1730" width="120" height="20" as="geometry" />
        </mxCell>
        <mxCell id="wAouXe5rf_n1GyTMq2Kt-282" value="" style="endArrow=none;html=1;rounded=1;strokeColor=#004C99;curved=0;strokeWidth=2;" parent="1" edge="1">
          <mxGeometry width="50" height="50" relative="1" as="geometry">
            <mxPoint x="600" y="1840" as="sourcePoint" />
            <mxPoint x="600" y="1800" as="targetPoint" />
          </mxGeometry>
        </mxCell>
        <mxCell id="24hsh32wNpXlRwZztjaE-1" value="" style="endArrow=none;html=1;rounded=0;strokeColor=#004C99;strokeWidth=2;edgeStyle=orthogonalEdgeStyle;curved=1;flowAnimation=0;shadow=0;" edge="1" parent="1">
          <mxGeometry width="50" height="50" relative="1" as="geometry">
            <mxPoint x="780" y="1570" as="sourcePoint" />
            <mxPoint x="760" y="1600" as="targetPoint" />
            <Array as="points">
              <mxPoint x="770" y="1570" />
              <mxPoint x="770" y="1600" />
            </Array>
          </mxGeometry>
        </mxCell>
        <mxCell id="24hsh32wNpXlRwZztjaE-2" value="&lt;span style=&quot;font-size: 12px;&quot;&gt;App Store&lt;/span&gt;" style="text;html=1;align=left;verticalAlign=middle;whiteSpace=wrap;rounded=0;fontSize=14;fontColor=#004C99;fontStyle=0" vertex="1" parent="1">
          <mxGeometry x="813" y="1560" width="62.75" height="20" as="geometry" />
        </mxCell>
        <mxCell id="24hsh32wNpXlRwZztjaE-3" value="" style="endArrow=none;html=1;rounded=0;strokeColor=#004C99;strokeWidth=2;edgeStyle=orthogonalEdgeStyle;curved=1;" edge="1" parent="1">
          <mxGeometry width="50" height="50" relative="1" as="geometry">
            <mxPoint x="800" y="1599.97" as="sourcePoint" />
            <mxPoint x="760" y="1600.03" as="targetPoint" />
            <Array as="points">
              <mxPoint x="810" y="1599.97" />
              <mxPoint x="810" y="1599.97" />
            </Array>
          </mxGeometry>
        </mxCell>
        <mxCell id="24hsh32wNpXlRwZztjaE-4" value="&lt;span style=&quot;font-size: 12px;&quot;&gt;Play Store&lt;/span&gt;" style="text;html=1;align=left;verticalAlign=middle;whiteSpace=wrap;rounded=0;fontSize=14;fontColor=#004C99;fontStyle=0" vertex="1" parent="1">
          <mxGeometry x="810" y="1590" width="60" height="20" as="geometry" />
        </mxCell>
        <mxCell id="24hsh32wNpXlRwZztjaE-5" value="" style="endArrow=none;html=1;rounded=0;strokeColor=#004C99;strokeWidth=2;edgeStyle=orthogonalEdgeStyle;curved=1;" edge="1" parent="1">
          <mxGeometry width="50" height="50" relative="1" as="geometry">
            <mxPoint x="780" y="1630" as="sourcePoint" />
            <mxPoint x="760" y="1600" as="targetPoint" />
            <Array as="points">
              <mxPoint x="770" y="1630" />
              <mxPoint x="770" y="1600" />
            </Array>
          </mxGeometry>
        </mxCell>
        <mxCell id="24hsh32wNpXlRwZztjaE-7" value="" style="endArrow=none;html=1;rounded=1;strokeColor=#004C99;strokeWidth=2;edgeStyle=orthogonalEdgeStyle;curved=1;" edge="1" parent="1">
          <mxGeometry width="50" height="50" relative="1" as="geometry">
            <mxPoint x="800" y="1570" as="sourcePoint" />
            <mxPoint x="780" y="1570" as="targetPoint" />
            <Array as="points">
              <mxPoint x="810" y="1570" />
            </Array>
          </mxGeometry>
        </mxCell>
        <mxCell id="24hsh32wNpXlRwZztjaE-8" value="" style="endArrow=none;html=1;rounded=0;strokeColor=#004C99;strokeWidth=2;edgeStyle=orthogonalEdgeStyle;curved=1;" edge="1" parent="1">
          <mxGeometry width="50" height="50" relative="1" as="geometry">
            <mxPoint x="779" y="1630" as="sourcePoint" />
            <mxPoint x="801.01" y="1630" as="targetPoint" />
            <Array as="points">
              <mxPoint x="860" y="1630" />
              <mxPoint x="860" y="1630" />
            </Array>
          </mxGeometry>
        </mxCell>
        <mxCell id="24hsh32wNpXlRwZztjaE-6" value="&lt;span style=&quot;font-size: 12px;&quot;&gt;Other&lt;/span&gt;" style="text;html=1;align=left;verticalAlign=middle;whiteSpace=wrap;rounded=0;fontSize=14;fontColor=#004C99;fontStyle=0" vertex="1" parent="1">
          <mxGeometry x="834" y="1619" width="32.5" height="20" as="geometry" />
        </mxCell>
        <mxCell id="24hsh32wNpXlRwZztjaE-11" value="" style="endArrow=none;html=1;rounded=0;strokeColor=#004C99;strokeWidth=2;edgeStyle=orthogonalEdgeStyle;curved=1;entryX=0;entryY=0.5;entryDx=0;entryDy=0;entryPerimeter=0;" edge="1" parent="1" target="wAouXe5rf_n1GyTMq2Kt-259">
          <mxGeometry width="50" height="50" relative="1" as="geometry">
            <mxPoint x="610" y="1600" as="sourcePoint" />
            <mxPoint x="620" y="1610" as="targetPoint" />
            <Array as="points">
              <mxPoint x="620" y="1600" />
              <mxPoint x="620" y="1600" />
            </Array>
          </mxGeometry>
        </mxCell>
        <mxCell id="24hsh32wNpXlRwZztjaE-15" value="" style="group" vertex="1" connectable="0" parent="1">
          <mxGeometry x="600" y="1430" width="35" height="10" as="geometry" />
        </mxCell>
        <mxCell id="24hsh32wNpXlRwZztjaE-16" value="" style="endArrow=none;html=1;rounded=0;strokeColor=#004C99;strokeWidth=2;edgeStyle=orthogonalEdgeStyle;curved=1;" edge="1" parent="24hsh32wNpXlRwZztjaE-15">
          <mxGeometry width="50" height="50" relative="1" as="geometry">
            <mxPoint as="sourcePoint" />
            <mxPoint x="10" y="10" as="targetPoint" />
            <Array as="points">
              <mxPoint y="10" />
            </Array>
          </mxGeometry>
        </mxCell>
        <mxCell id="24hsh32wNpXlRwZztjaE-17" value="" style="endArrow=none;html=1;rounded=0;strokeColor=#004C99;strokeWidth=2;edgeStyle=orthogonalEdgeStyle;curved=1;" edge="1" parent="24hsh32wNpXlRwZztjaE-15">
          <mxGeometry width="50" height="50" relative="1" as="geometry">
            <mxPoint x="10" y="10" as="sourcePoint" />
            <mxPoint x="40" y="10" as="targetPoint" />
            <Array as="points">
              <mxPoint x="10" y="9.920000000000073" />
              <mxPoint x="10" y="9.920000000000073" />
            </Array>
          </mxGeometry>
        </mxCell>
        <mxCell id="24hsh32wNpXlRwZztjaE-18" value="" style="group" vertex="1" connectable="0" parent="1">
          <mxGeometry x="600" y="1270" width="35" height="10" as="geometry" />
        </mxCell>
        <mxCell id="24hsh32wNpXlRwZztjaE-19" value="" style="endArrow=none;html=1;rounded=0;strokeColor=#004C99;strokeWidth=2;edgeStyle=orthogonalEdgeStyle;curved=1;" edge="1" parent="24hsh32wNpXlRwZztjaE-18">
          <mxGeometry width="50" height="50" relative="1" as="geometry">
            <mxPoint as="sourcePoint" />
            <mxPoint x="10" y="10" as="targetPoint" />
            <Array as="points">
              <mxPoint y="10" />
            </Array>
          </mxGeometry>
        </mxCell>
        <mxCell id="24hsh32wNpXlRwZztjaE-20" value="" style="endArrow=none;html=1;rounded=0;strokeColor=#004C99;strokeWidth=2;edgeStyle=orthogonalEdgeStyle;curved=1;" edge="1" parent="24hsh32wNpXlRwZztjaE-18">
          <mxGeometry width="50" height="50" relative="1" as="geometry">
            <mxPoint x="10" y="10" as="sourcePoint" />
            <mxPoint x="40" y="10" as="targetPoint" />
            <Array as="points">
              <mxPoint x="10" y="9.920000000000073" />
              <mxPoint x="10" y="9.920000000000073" />
            </Array>
          </mxGeometry>
        </mxCell>
        <mxCell id="24hsh32wNpXlRwZztjaE-21" value="" style="group" vertex="1" connectable="0" parent="1">
          <mxGeometry x="600" y="1110" width="35" height="10" as="geometry" />
        </mxCell>
        <mxCell id="24hsh32wNpXlRwZztjaE-22" value="" style="endArrow=none;html=1;rounded=0;strokeColor=#004C99;strokeWidth=2;edgeStyle=orthogonalEdgeStyle;curved=1;" edge="1" parent="24hsh32wNpXlRwZztjaE-21">
          <mxGeometry width="50" height="50" relative="1" as="geometry">
            <mxPoint as="sourcePoint" />
            <mxPoint x="10" y="10" as="targetPoint" />
            <Array as="points">
              <mxPoint y="10" />
            </Array>
          </mxGeometry>
        </mxCell>
        <mxCell id="24hsh32wNpXlRwZztjaE-23" value="" style="endArrow=none;html=1;rounded=0;strokeColor=#004C99;strokeWidth=2;edgeStyle=orthogonalEdgeStyle;curved=1;" edge="1" parent="24hsh32wNpXlRwZztjaE-21">
          <mxGeometry width="50" height="50" relative="1" as="geometry">
            <mxPoint x="10" y="10" as="sourcePoint" />
            <mxPoint x="40" y="10" as="targetPoint" />
            <Array as="points">
              <mxPoint x="10" y="9.920000000000073" />
              <mxPoint x="10" y="9.920000000000073" />
            </Array>
          </mxGeometry>
        </mxCell>
        <mxCell id="24hsh32wNpXlRwZztjaE-24" value="" style="group" vertex="1" connectable="0" parent="1">
          <mxGeometry x="600" y="950" width="35" height="10" as="geometry" />
        </mxCell>
        <mxCell id="24hsh32wNpXlRwZztjaE-25" value="" style="endArrow=none;html=1;rounded=0;strokeColor=#004C99;strokeWidth=2;edgeStyle=orthogonalEdgeStyle;curved=1;" edge="1" parent="24hsh32wNpXlRwZztjaE-24">
          <mxGeometry width="50" height="50" relative="1" as="geometry">
            <mxPoint as="sourcePoint" />
            <mxPoint x="10" y="10" as="targetPoint" />
            <Array as="points">
              <mxPoint y="10" />
            </Array>
          </mxGeometry>
        </mxCell>
        <mxCell id="24hsh32wNpXlRwZztjaE-26" value="" style="endArrow=none;html=1;rounded=0;strokeColor=#004C99;strokeWidth=2;edgeStyle=orthogonalEdgeStyle;curved=1;" edge="1" parent="24hsh32wNpXlRwZztjaE-24">
          <mxGeometry width="50" height="50" relative="1" as="geometry">
            <mxPoint x="10" y="10" as="sourcePoint" />
            <mxPoint x="40" y="10" as="targetPoint" />
            <Array as="points">
              <mxPoint x="10" y="9.920000000000073" />
              <mxPoint x="10" y="9.920000000000073" />
            </Array>
          </mxGeometry>
        </mxCell>
        <mxCell id="24hsh32wNpXlRwZztjaE-27" value="" style="group" vertex="1" connectable="0" parent="1">
          <mxGeometry x="600" y="790" width="35" height="10" as="geometry" />
        </mxCell>
        <mxCell id="24hsh32wNpXlRwZztjaE-28" value="" style="endArrow=none;html=1;rounded=0;strokeColor=#004C99;strokeWidth=2;edgeStyle=orthogonalEdgeStyle;curved=1;" edge="1" parent="24hsh32wNpXlRwZztjaE-27">
          <mxGeometry width="50" height="50" relative="1" as="geometry">
            <mxPoint as="sourcePoint" />
            <mxPoint x="10" y="10" as="targetPoint" />
            <Array as="points">
              <mxPoint y="10" />
            </Array>
          </mxGeometry>
        </mxCell>
        <mxCell id="24hsh32wNpXlRwZztjaE-29" value="" style="endArrow=none;html=1;rounded=0;strokeColor=#004C99;strokeWidth=2;edgeStyle=orthogonalEdgeStyle;curved=1;" edge="1" parent="24hsh32wNpXlRwZztjaE-27">
          <mxGeometry width="50" height="50" relative="1" as="geometry">
            <mxPoint x="10" y="10" as="sourcePoint" />
            <mxPoint x="40" y="10" as="targetPoint" />
            <Array as="points">
              <mxPoint x="10" y="9.920000000000073" />
              <mxPoint x="10" y="9.920000000000073" />
            </Array>
          </mxGeometry>
        </mxCell>
        <mxCell id="24hsh32wNpXlRwZztjaE-30" value="" style="group" vertex="1" connectable="0" parent="1">
          <mxGeometry x="600" y="630" width="35" height="10" as="geometry" />
        </mxCell>
        <mxCell id="24hsh32wNpXlRwZztjaE-31" value="" style="endArrow=none;html=1;rounded=0;strokeColor=#004C99;strokeWidth=2;edgeStyle=orthogonalEdgeStyle;curved=1;" edge="1" parent="24hsh32wNpXlRwZztjaE-30">
          <mxGeometry width="50" height="50" relative="1" as="geometry">
            <mxPoint as="sourcePoint" />
            <mxPoint x="10" y="10" as="targetPoint" />
            <Array as="points">
              <mxPoint y="10" />
            </Array>
          </mxGeometry>
        </mxCell>
        <mxCell id="24hsh32wNpXlRwZztjaE-32" value="" style="endArrow=none;html=1;rounded=0;strokeColor=#004C99;strokeWidth=2;edgeStyle=orthogonalEdgeStyle;curved=1;" edge="1" parent="24hsh32wNpXlRwZztjaE-30">
          <mxGeometry width="50" height="50" relative="1" as="geometry">
            <mxPoint x="10" y="10" as="sourcePoint" />
            <mxPoint x="40" y="10" as="targetPoint" />
            <Array as="points">
              <mxPoint x="10" y="9.920000000000073" />
              <mxPoint x="10" y="9.920000000000073" />
            </Array>
          </mxGeometry>
        </mxCell>
        <mxCell id="24hsh32wNpXlRwZztjaE-33" value="" style="group" vertex="1" connectable="0" parent="1">
          <mxGeometry x="600" y="470" width="35" height="10" as="geometry" />
        </mxCell>
        <mxCell id="24hsh32wNpXlRwZztjaE-34" value="" style="endArrow=none;html=1;rounded=0;strokeColor=#004C99;strokeWidth=2;edgeStyle=orthogonalEdgeStyle;curved=1;" edge="1" parent="24hsh32wNpXlRwZztjaE-33">
          <mxGeometry width="50" height="50" relative="1" as="geometry">
            <mxPoint as="sourcePoint" />
            <mxPoint x="10" y="10" as="targetPoint" />
            <Array as="points">
              <mxPoint y="10" />
            </Array>
          </mxGeometry>
        </mxCell>
        <mxCell id="24hsh32wNpXlRwZztjaE-35" value="" style="endArrow=none;html=1;rounded=0;strokeColor=#004C99;strokeWidth=2;edgeStyle=orthogonalEdgeStyle;curved=1;" edge="1" parent="24hsh32wNpXlRwZztjaE-33">
          <mxGeometry width="50" height="50" relative="1" as="geometry">
            <mxPoint x="10" y="10" as="sourcePoint" />
            <mxPoint x="40" y="10" as="targetPoint" />
            <Array as="points">
              <mxPoint x="10" y="9.920000000000073" />
              <mxPoint x="10" y="9.920000000000073" />
            </Array>
          </mxGeometry>
        </mxCell>
        <mxCell id="24hsh32wNpXlRwZztjaE-36" value="" style="group" vertex="1" connectable="0" parent="1">
          <mxGeometry x="600" y="270" width="35" height="10" as="geometry" />
        </mxCell>
        <mxCell id="24hsh32wNpXlRwZztjaE-37" value="" style="endArrow=none;html=1;rounded=0;strokeColor=#004C99;strokeWidth=2;edgeStyle=orthogonalEdgeStyle;curved=1;" edge="1" parent="24hsh32wNpXlRwZztjaE-36">
          <mxGeometry width="50" height="50" relative="1" as="geometry">
            <mxPoint as="sourcePoint" />
            <mxPoint x="10" y="10" as="targetPoint" />
            <Array as="points">
              <mxPoint y="10" />
            </Array>
          </mxGeometry>
        </mxCell>
        <mxCell id="24hsh32wNpXlRwZztjaE-38" value="" style="endArrow=none;html=1;rounded=0;strokeColor=#004C99;strokeWidth=2;edgeStyle=orthogonalEdgeStyle;curved=1;" edge="1" parent="24hsh32wNpXlRwZztjaE-36">
          <mxGeometry width="50" height="50" relative="1" as="geometry">
            <mxPoint x="10" y="10" as="sourcePoint" />
            <mxPoint x="40" y="10" as="targetPoint" />
            <Array as="points">
              <mxPoint x="10" y="9.920000000000073" />
              <mxPoint x="10" y="9.920000000000073" />
            </Array>
          </mxGeometry>
        </mxCell>
        <mxCell id="24hsh32wNpXlRwZztjaE-39" value="" style="group;flipH=1;" vertex="1" connectable="0" parent="1">
          <mxGeometry x="565" y="190" width="35" height="10" as="geometry" />
        </mxCell>
        <mxCell id="24hsh32wNpXlRwZztjaE-40" value="" style="endArrow=none;html=1;rounded=0;strokeColor=#004C99;strokeWidth=2;edgeStyle=orthogonalEdgeStyle;curved=1;" edge="1" parent="24hsh32wNpXlRwZztjaE-39">
          <mxGeometry width="50" height="50" relative="1" as="geometry">
            <mxPoint x="35" as="sourcePoint" />
            <mxPoint x="25" y="10" as="targetPoint" />
            <Array as="points">
              <mxPoint x="35" y="10" />
            </Array>
          </mxGeometry>
        </mxCell>
        <mxCell id="24hsh32wNpXlRwZztjaE-41" value="" style="endArrow=none;html=1;rounded=0;strokeColor=#004C99;strokeWidth=2;edgeStyle=orthogonalEdgeStyle;curved=1;" edge="1" parent="24hsh32wNpXlRwZztjaE-39">
          <mxGeometry width="50" height="50" relative="1" as="geometry">
            <mxPoint x="25" y="10" as="sourcePoint" />
            <mxPoint x="-5" y="10" as="targetPoint" />
            <Array as="points">
              <mxPoint x="25" y="9.920000000000073" />
              <mxPoint x="25" y="9.920000000000073" />
            </Array>
          </mxGeometry>
        </mxCell>
        <mxCell id="24hsh32wNpXlRwZztjaE-42" value="" style="group;flipH=1;" vertex="1" connectable="0" parent="1">
          <mxGeometry x="565" y="390" width="35" height="10" as="geometry" />
        </mxCell>
        <mxCell id="24hsh32wNpXlRwZztjaE-43" value="" style="endArrow=none;html=1;rounded=0;strokeColor=#004C99;strokeWidth=2;edgeStyle=orthogonalEdgeStyle;curved=1;" edge="1" parent="24hsh32wNpXlRwZztjaE-42">
          <mxGeometry width="50" height="50" relative="1" as="geometry">
            <mxPoint x="35" as="sourcePoint" />
            <mxPoint x="25" y="10" as="targetPoint" />
            <Array as="points">
              <mxPoint x="35" y="10" />
            </Array>
          </mxGeometry>
        </mxCell>
        <mxCell id="24hsh32wNpXlRwZztjaE-44" value="" style="endArrow=none;html=1;rounded=0;strokeColor=#004C99;strokeWidth=2;edgeStyle=orthogonalEdgeStyle;curved=1;" edge="1" parent="24hsh32wNpXlRwZztjaE-42">
          <mxGeometry width="50" height="50" relative="1" as="geometry">
            <mxPoint x="25" y="10" as="sourcePoint" />
            <mxPoint x="-5" y="10" as="targetPoint" />
            <Array as="points">
              <mxPoint x="25" y="9.920000000000073" />
              <mxPoint x="25" y="9.920000000000073" />
            </Array>
          </mxGeometry>
        </mxCell>
        <mxCell id="24hsh32wNpXlRwZztjaE-45" value="" style="group;flipH=1;" vertex="1" connectable="0" parent="1">
          <mxGeometry x="565" y="550" width="35" height="10" as="geometry" />
        </mxCell>
        <mxCell id="24hsh32wNpXlRwZztjaE-46" value="" style="endArrow=none;html=1;rounded=0;strokeColor=#004C99;strokeWidth=2;edgeStyle=orthogonalEdgeStyle;curved=1;" edge="1" parent="24hsh32wNpXlRwZztjaE-45">
          <mxGeometry width="50" height="50" relative="1" as="geometry">
            <mxPoint x="35" as="sourcePoint" />
            <mxPoint x="25" y="10" as="targetPoint" />
            <Array as="points">
              <mxPoint x="35" y="10" />
            </Array>
          </mxGeometry>
        </mxCell>
        <mxCell id="24hsh32wNpXlRwZztjaE-47" value="" style="endArrow=none;html=1;rounded=0;strokeColor=#004C99;strokeWidth=2;edgeStyle=orthogonalEdgeStyle;curved=1;" edge="1" parent="24hsh32wNpXlRwZztjaE-45">
          <mxGeometry width="50" height="50" relative="1" as="geometry">
            <mxPoint x="25" y="10" as="sourcePoint" />
            <mxPoint x="-5" y="10" as="targetPoint" />
            <Array as="points">
              <mxPoint x="25" y="9.920000000000073" />
              <mxPoint x="25" y="9.920000000000073" />
            </Array>
          </mxGeometry>
        </mxCell>
        <mxCell id="24hsh32wNpXlRwZztjaE-48" value="" style="group;flipH=1;" vertex="1" connectable="0" parent="1">
          <mxGeometry x="565" y="710" width="35" height="10" as="geometry" />
        </mxCell>
        <mxCell id="24hsh32wNpXlRwZztjaE-49" value="" style="endArrow=none;html=1;rounded=0;strokeColor=#004C99;strokeWidth=2;edgeStyle=orthogonalEdgeStyle;curved=1;" edge="1" parent="24hsh32wNpXlRwZztjaE-48">
          <mxGeometry width="50" height="50" relative="1" as="geometry">
            <mxPoint x="35" as="sourcePoint" />
            <mxPoint x="25" y="10" as="targetPoint" />
            <Array as="points">
              <mxPoint x="35" y="10" />
            </Array>
          </mxGeometry>
        </mxCell>
        <mxCell id="24hsh32wNpXlRwZztjaE-50" value="" style="endArrow=none;html=1;rounded=0;strokeColor=#004C99;strokeWidth=2;edgeStyle=orthogonalEdgeStyle;curved=1;" edge="1" parent="24hsh32wNpXlRwZztjaE-48">
          <mxGeometry width="50" height="50" relative="1" as="geometry">
            <mxPoint x="25" y="10" as="sourcePoint" />
            <mxPoint x="-5" y="10" as="targetPoint" />
            <Array as="points">
              <mxPoint x="25" y="9.920000000000073" />
              <mxPoint x="25" y="9.920000000000073" />
            </Array>
          </mxGeometry>
        </mxCell>
        <mxCell id="24hsh32wNpXlRwZztjaE-51" value="" style="group;flipH=1;" vertex="1" connectable="0" parent="1">
          <mxGeometry x="565" y="870" width="35" height="10" as="geometry" />
        </mxCell>
        <mxCell id="24hsh32wNpXlRwZztjaE-52" value="" style="endArrow=none;html=1;rounded=0;strokeColor=#004C99;strokeWidth=2;edgeStyle=orthogonalEdgeStyle;curved=1;" edge="1" parent="24hsh32wNpXlRwZztjaE-51">
          <mxGeometry width="50" height="50" relative="1" as="geometry">
            <mxPoint x="35" as="sourcePoint" />
            <mxPoint x="25" y="10" as="targetPoint" />
            <Array as="points">
              <mxPoint x="35" y="10" />
            </Array>
          </mxGeometry>
        </mxCell>
        <mxCell id="24hsh32wNpXlRwZztjaE-53" value="" style="endArrow=none;html=1;rounded=0;strokeColor=#004C99;strokeWidth=2;edgeStyle=orthogonalEdgeStyle;curved=1;" edge="1" parent="24hsh32wNpXlRwZztjaE-51">
          <mxGeometry width="50" height="50" relative="1" as="geometry">
            <mxPoint x="25" y="10" as="sourcePoint" />
            <mxPoint x="-5" y="10" as="targetPoint" />
            <Array as="points">
              <mxPoint x="25" y="9.920000000000073" />
              <mxPoint x="25" y="9.920000000000073" />
            </Array>
          </mxGeometry>
        </mxCell>
        <mxCell id="24hsh32wNpXlRwZztjaE-54" value="" style="group;flipH=1;" vertex="1" connectable="0" parent="1">
          <mxGeometry x="565" y="1030" width="35" height="10" as="geometry" />
        </mxCell>
        <mxCell id="24hsh32wNpXlRwZztjaE-55" value="" style="endArrow=none;html=1;rounded=0;strokeColor=#004C99;strokeWidth=2;edgeStyle=orthogonalEdgeStyle;curved=1;" edge="1" parent="24hsh32wNpXlRwZztjaE-54">
          <mxGeometry width="50" height="50" relative="1" as="geometry">
            <mxPoint x="35" as="sourcePoint" />
            <mxPoint x="25" y="10" as="targetPoint" />
            <Array as="points">
              <mxPoint x="35" y="10" />
            </Array>
          </mxGeometry>
        </mxCell>
        <mxCell id="24hsh32wNpXlRwZztjaE-56" value="" style="endArrow=none;html=1;rounded=0;strokeColor=#004C99;strokeWidth=2;edgeStyle=orthogonalEdgeStyle;curved=1;" edge="1" parent="24hsh32wNpXlRwZztjaE-54">
          <mxGeometry width="50" height="50" relative="1" as="geometry">
            <mxPoint x="25" y="10" as="sourcePoint" />
            <mxPoint x="-5" y="10" as="targetPoint" />
            <Array as="points">
              <mxPoint x="25" y="9.920000000000073" />
              <mxPoint x="25" y="9.920000000000073" />
            </Array>
          </mxGeometry>
        </mxCell>
        <mxCell id="24hsh32wNpXlRwZztjaE-57" value="" style="group;flipH=1;" vertex="1" connectable="0" parent="1">
          <mxGeometry x="565" y="1190" width="35" height="10" as="geometry" />
        </mxCell>
        <mxCell id="24hsh32wNpXlRwZztjaE-58" value="" style="endArrow=none;html=1;rounded=0;strokeColor=#004C99;strokeWidth=2;edgeStyle=orthogonalEdgeStyle;curved=1;" edge="1" parent="24hsh32wNpXlRwZztjaE-57">
          <mxGeometry width="50" height="50" relative="1" as="geometry">
            <mxPoint x="35" as="sourcePoint" />
            <mxPoint x="25" y="10" as="targetPoint" />
            <Array as="points">
              <mxPoint x="35" y="10" />
            </Array>
          </mxGeometry>
        </mxCell>
        <mxCell id="24hsh32wNpXlRwZztjaE-59" value="" style="endArrow=none;html=1;rounded=0;strokeColor=#004C99;strokeWidth=2;edgeStyle=orthogonalEdgeStyle;curved=1;" edge="1" parent="24hsh32wNpXlRwZztjaE-57">
          <mxGeometry width="50" height="50" relative="1" as="geometry">
            <mxPoint x="25" y="10" as="sourcePoint" />
            <mxPoint x="-5" y="10" as="targetPoint" />
            <Array as="points">
              <mxPoint x="25" y="9.920000000000073" />
              <mxPoint x="25" y="9.920000000000073" />
            </Array>
          </mxGeometry>
        </mxCell>
        <mxCell id="24hsh32wNpXlRwZztjaE-60" value="" style="group;flipH=1;" vertex="1" connectable="0" parent="1">
          <mxGeometry x="565" y="1350" width="35" height="10" as="geometry" />
        </mxCell>
        <mxCell id="24hsh32wNpXlRwZztjaE-61" value="" style="endArrow=none;html=1;rounded=0;strokeColor=#004C99;strokeWidth=2;edgeStyle=orthogonalEdgeStyle;curved=1;" edge="1" parent="24hsh32wNpXlRwZztjaE-60">
          <mxGeometry width="50" height="50" relative="1" as="geometry">
            <mxPoint x="35" as="sourcePoint" />
            <mxPoint x="25" y="10" as="targetPoint" />
            <Array as="points">
              <mxPoint x="35" y="10" />
            </Array>
          </mxGeometry>
        </mxCell>
        <mxCell id="24hsh32wNpXlRwZztjaE-62" value="" style="endArrow=none;html=1;rounded=0;strokeColor=#004C99;strokeWidth=2;edgeStyle=orthogonalEdgeStyle;curved=1;" edge="1" parent="24hsh32wNpXlRwZztjaE-60">
          <mxGeometry width="50" height="50" relative="1" as="geometry">
            <mxPoint x="25" y="10" as="sourcePoint" />
            <mxPoint x="-5" y="10" as="targetPoint" />
            <Array as="points">
              <mxPoint x="25" y="9.920000000000073" />
              <mxPoint x="25" y="9.920000000000073" />
            </Array>
          </mxGeometry>
        </mxCell>
        <mxCell id="24hsh32wNpXlRwZztjaE-63" value="" style="group;flipH=1;" vertex="1" connectable="0" parent="1">
          <mxGeometry x="565" y="1510" width="35" height="10" as="geometry" />
        </mxCell>
        <mxCell id="24hsh32wNpXlRwZztjaE-64" value="" style="endArrow=none;html=1;rounded=0;strokeColor=#004C99;strokeWidth=2;edgeStyle=orthogonalEdgeStyle;curved=1;" edge="1" parent="24hsh32wNpXlRwZztjaE-63">
          <mxGeometry width="50" height="50" relative="1" as="geometry">
            <mxPoint x="35" as="sourcePoint" />
            <mxPoint x="25" y="10" as="targetPoint" />
            <Array as="points">
              <mxPoint x="35" y="10" />
            </Array>
          </mxGeometry>
        </mxCell>
        <mxCell id="24hsh32wNpXlRwZztjaE-65" value="" style="endArrow=none;html=1;rounded=0;strokeColor=#004C99;strokeWidth=2;edgeStyle=orthogonalEdgeStyle;curved=1;" edge="1" parent="24hsh32wNpXlRwZztjaE-63">
          <mxGeometry width="50" height="50" relative="1" as="geometry">
            <mxPoint x="25" y="10" as="sourcePoint" />
            <mxPoint x="-5" y="10" as="targetPoint" />
            <Array as="points">
              <mxPoint x="25" y="9.920000000000073" />
              <mxPoint x="25" y="9.920000000000073" />
            </Array>
          </mxGeometry>
        </mxCell>
        <mxCell id="24hsh32wNpXlRwZztjaE-67" value="" style="endArrow=none;html=1;rounded=1;strokeColor=#004C99;strokeWidth=2;curved=0;" edge="1" parent="1">
          <mxGeometry width="50" height="50" relative="1" as="geometry">
            <mxPoint x="400" y="1505" as="sourcePoint" />
            <mxPoint x="421" y="1505" as="targetPoint" />
            <Array as="points">
              <mxPoint x="380" y="1505" />
              <mxPoint x="390" y="1505" />
            </Array>
          </mxGeometry>
        </mxCell>
        <mxCell id="24hsh32wNpXlRwZztjaE-68" value="" style="endArrow=none;html=1;rounded=0;strokeColor=#004C99;strokeWidth=2;edgeStyle=orthogonalEdgeStyle;curved=1;flowAnimation=0;shadow=0;entryX=0.001;entryY=0.476;entryDx=0;entryDy=0;entryPerimeter=0;" edge="1" parent="1">
          <mxGeometry width="50" height="50" relative="1" as="geometry">
            <mxPoint x="421" y="1535" as="sourcePoint" />
            <mxPoint x="440" y="1520" as="targetPoint" />
            <Array as="points">
              <mxPoint x="430" y="1535" />
              <mxPoint x="430" y="1520" />
            </Array>
          </mxGeometry>
        </mxCell>
        <mxCell id="24hsh32wNpXlRwZztjaE-69" value="" style="endArrow=none;html=1;rounded=1;strokeColor=#004C99;strokeWidth=2;curved=0;" edge="1" parent="1">
          <mxGeometry width="50" height="50" relative="1" as="geometry">
            <mxPoint x="398" y="1535" as="sourcePoint" />
            <mxPoint x="422" y="1535" as="targetPoint" />
            <Array as="points">
              <mxPoint x="390" y="1535" />
            </Array>
          </mxGeometry>
        </mxCell>
        <mxCell id="24hsh32wNpXlRwZztjaE-70" value="" style="endArrow=none;html=1;rounded=0;strokeColor=#004C99;strokeWidth=2;edgeStyle=orthogonalEdgeStyle;curved=1;flowAnimation=0;shadow=0;entryX=0.001;entryY=0.476;entryDx=0;entryDy=0;entryPerimeter=0;" edge="1" parent="1">
          <mxGeometry width="50" height="50" relative="1" as="geometry">
            <mxPoint x="421" y="1505" as="sourcePoint" />
            <mxPoint x="440" y="1520" as="targetPoint" />
            <Array as="points">
              <mxPoint x="430" y="1505" />
              <mxPoint x="430" y="1520" />
            </Array>
          </mxGeometry>
        </mxCell>
        <mxCell id="24hsh32wNpXlRwZztjaE-71" value="" style="endArrow=none;html=1;rounded=0;strokeColor=#004C99;strokeWidth=2;edgeStyle=orthogonalEdgeStyle;curved=1;flowAnimation=0;shadow=0;" edge="1" parent="1">
          <mxGeometry width="50" height="50" relative="1" as="geometry">
            <mxPoint x="419.9999999999998" y="1329.77" as="sourcePoint" />
            <mxPoint x="439.9999999999998" y="1359.77" as="targetPoint" />
            <Array as="points">
              <mxPoint x="429.9999999999998" y="1329.77" />
              <mxPoint x="429.9999999999998" y="1359.77" />
            </Array>
          </mxGeometry>
        </mxCell>
        <mxCell id="24hsh32wNpXlRwZztjaE-73" value="" style="endArrow=none;html=1;rounded=0;strokeColor=#004C99;strokeWidth=2;edgeStyle=orthogonalEdgeStyle;curved=1;" edge="1" parent="1">
          <mxGeometry width="50" height="50" relative="1" as="geometry">
            <mxPoint x="397.0647368421053" y="1359.74" as="sourcePoint" />
            <mxPoint x="437.0647368421053" y="1359.8" as="targetPoint" />
            <Array as="points">
              <mxPoint x="320" y="1360" />
              <mxPoint x="320" y="1360" />
            </Array>
          </mxGeometry>
        </mxCell>
        <mxCell id="24hsh32wNpXlRwZztjaE-75" value="" style="endArrow=none;html=1;rounded=0;strokeColor=#004C99;strokeWidth=2;edgeStyle=orthogonalEdgeStyle;curved=1;" edge="1" parent="1">
          <mxGeometry width="50" height="50" relative="1" as="geometry">
            <mxPoint x="419.9999999999998" y="1389.77" as="sourcePoint" />
            <mxPoint x="439.9999999999998" y="1359.77" as="targetPoint" />
            <Array as="points">
              <mxPoint x="429.9999999999998" y="1389.77" />
              <mxPoint x="429.9999999999998" y="1359.77" />
            </Array>
          </mxGeometry>
        </mxCell>
        <mxCell id="24hsh32wNpXlRwZztjaE-76" value="" style="endArrow=none;html=1;rounded=1;strokeColor=#004C99;strokeWidth=2;edgeStyle=orthogonalEdgeStyle;curved=1;" edge="1" parent="1">
          <mxGeometry width="50" height="50" relative="1" as="geometry">
            <mxPoint x="399.07000000000005" y="1329.77" as="sourcePoint" />
            <mxPoint x="421.07000000000005" y="1329.77" as="targetPoint" />
            <Array as="points">
              <mxPoint x="340" y="1330" />
              <mxPoint x="340" y="1330" />
            </Array>
          </mxGeometry>
        </mxCell>
        <mxCell id="24hsh32wNpXlRwZztjaE-77" value="" style="endArrow=none;html=1;rounded=0;strokeColor=#004C99;strokeWidth=2;edgeStyle=orthogonalEdgeStyle;curved=1;" edge="1" parent="1">
          <mxGeometry width="50" height="50" relative="1" as="geometry">
            <mxPoint x="421.07000000000005" y="1389.77" as="sourcePoint" />
            <mxPoint x="407.07000000000005" y="1389.77" as="targetPoint" />
            <Array as="points">
              <mxPoint x="354.5747368421053" y="1389.58" />
              <mxPoint x="354.5747368421053" y="1389.58" />
            </Array>
          </mxGeometry>
        </mxCell>
        <mxCell id="24hsh32wNpXlRwZztjaE-79" value="" style="endArrow=none;html=1;rounded=1;strokeColor=#004C99;strokeWidth=2;curved=0;" edge="1" parent="1">
          <mxGeometry width="50" height="50" relative="1" as="geometry">
            <mxPoint x="360" y="1184.71" as="sourcePoint" />
            <mxPoint x="381" y="1184.71" as="targetPoint" />
            <Array as="points">
              <mxPoint x="350" y="1184.71" />
            </Array>
          </mxGeometry>
        </mxCell>
        <mxCell id="24hsh32wNpXlRwZztjaE-80" value="" style="endArrow=none;html=1;rounded=0;strokeColor=#004C99;strokeWidth=2;edgeStyle=orthogonalEdgeStyle;curved=1;flowAnimation=0;shadow=0;entryX=0.001;entryY=0.476;entryDx=0;entryDy=0;entryPerimeter=0;" edge="1" parent="1">
          <mxGeometry width="50" height="50" relative="1" as="geometry">
            <mxPoint x="381" y="1214.71" as="sourcePoint" />
            <mxPoint x="400" y="1199.71" as="targetPoint" />
            <Array as="points">
              <mxPoint x="390" y="1214.71" />
              <mxPoint x="390" y="1199.71" />
            </Array>
          </mxGeometry>
        </mxCell>
        <mxCell id="24hsh32wNpXlRwZztjaE-81" value="" style="endArrow=none;html=1;rounded=1;strokeColor=#004C99;strokeWidth=2;curved=0;" edge="1" parent="1">
          <mxGeometry width="50" height="50" relative="1" as="geometry">
            <mxPoint x="382" y="1214.7" as="sourcePoint" />
            <mxPoint x="378" y="1214.7" as="targetPoint" />
            <Array as="points">
              <mxPoint x="340" y="1215" />
            </Array>
          </mxGeometry>
        </mxCell>
        <mxCell id="24hsh32wNpXlRwZztjaE-82" value="" style="endArrow=none;html=1;rounded=0;strokeColor=#004C99;strokeWidth=2;edgeStyle=orthogonalEdgeStyle;curved=1;flowAnimation=0;shadow=0;entryX=0.001;entryY=0.476;entryDx=0;entryDy=0;entryPerimeter=0;" edge="1" parent="1">
          <mxGeometry width="50" height="50" relative="1" as="geometry">
            <mxPoint x="381" y="1184.71" as="sourcePoint" />
            <mxPoint x="400" y="1199.71" as="targetPoint" />
            <Array as="points">
              <mxPoint x="390" y="1184.71" />
              <mxPoint x="390" y="1199.71" />
            </Array>
          </mxGeometry>
        </mxCell>
        <mxCell id="24hsh32wNpXlRwZztjaE-86" value="" style="endArrow=none;html=1;rounded=0;strokeColor=#004C99;strokeWidth=2;edgeStyle=orthogonalEdgeStyle;curved=1;flowAnimation=0;shadow=0;" edge="1" parent="1">
          <mxGeometry width="50" height="50" relative="1" as="geometry">
            <mxPoint x="380" y="1010" as="sourcePoint" />
            <mxPoint x="401" y="1040" as="targetPoint" />
            <Array as="points">
              <mxPoint x="390" y="1010" />
              <mxPoint x="390" y="1040" />
            </Array>
          </mxGeometry>
        </mxCell>
        <mxCell id="24hsh32wNpXlRwZztjaE-87" value="" style="endArrow=none;html=1;rounded=0;strokeColor=#004C99;strokeWidth=2;edgeStyle=orthogonalEdgeStyle;curved=1;" edge="1" parent="1">
          <mxGeometry width="50" height="50" relative="1" as="geometry">
            <mxPoint x="327.24" y="1040" as="sourcePoint" />
            <mxPoint x="400" y="1040" as="targetPoint" />
            <Array as="points">
              <mxPoint x="270" y="1040" />
              <mxPoint x="270" y="1040" />
            </Array>
          </mxGeometry>
        </mxCell>
        <mxCell id="24hsh32wNpXlRwZztjaE-88" value="" style="endArrow=none;html=1;rounded=0;strokeColor=#004C99;strokeWidth=2;edgeStyle=orthogonalEdgeStyle;curved=1;" edge="1" parent="1">
          <mxGeometry width="50" height="50" relative="1" as="geometry">
            <mxPoint x="379.9999999999998" y="1069.51" as="sourcePoint" />
            <mxPoint x="399.9999999999998" y="1039.51" as="targetPoint" />
            <Array as="points">
              <mxPoint x="389.9999999999998" y="1069.51" />
              <mxPoint x="389.9999999999998" y="1039.51" />
            </Array>
          </mxGeometry>
        </mxCell>
        <mxCell id="24hsh32wNpXlRwZztjaE-89" value="" style="endArrow=none;html=1;rounded=1;strokeColor=#004C99;strokeWidth=2;edgeStyle=orthogonalEdgeStyle;curved=1;" edge="1" parent="1">
          <mxGeometry width="50" height="50" relative="1" as="geometry">
            <mxPoint x="358.75000000000006" y="1010" as="sourcePoint" />
            <mxPoint x="380.75000000000006" y="1010" as="targetPoint" />
            <Array as="points">
              <mxPoint x="240" y="1010" />
              <mxPoint x="240" y="1010" />
            </Array>
          </mxGeometry>
        </mxCell>
        <mxCell id="24hsh32wNpXlRwZztjaE-90" value="" style="endArrow=none;html=1;rounded=0;strokeColor=#004C99;strokeWidth=2;edgeStyle=orthogonalEdgeStyle;curved=1;" edge="1" parent="1">
          <mxGeometry width="50" height="50" relative="1" as="geometry">
            <mxPoint x="381.07000000000005" y="1069.51" as="sourcePoint" />
            <mxPoint x="367.07000000000005" y="1069.51" as="targetPoint" />
            <Array as="points">
              <mxPoint x="220" y="1070" />
              <mxPoint x="220" y="1070" />
            </Array>
          </mxGeometry>
        </mxCell>
        <mxCell id="24hsh32wNpXlRwZztjaE-91" value="" style="endArrow=none;html=1;rounded=0;strokeColor=#004C99;strokeWidth=2;edgeStyle=orthogonalEdgeStyle;curved=1;flowAnimation=0;shadow=0;" edge="1" parent="1">
          <mxGeometry width="50" height="50" relative="1" as="geometry">
            <mxPoint x="380" y="980" as="sourcePoint" />
            <mxPoint x="400.7499999999998" y="1040" as="targetPoint" />
            <Array as="points">
              <mxPoint x="390" y="980" />
              <mxPoint x="390" y="1040" />
            </Array>
          </mxGeometry>
        </mxCell>
        <mxCell id="24hsh32wNpXlRwZztjaE-92" value="" style="endArrow=none;html=1;rounded=1;strokeColor=#004C99;strokeWidth=2;edgeStyle=orthogonalEdgeStyle;curved=1;" edge="1" parent="1" source="wAouXe5rf_n1GyTMq2Kt-209">
          <mxGeometry width="50" height="50" relative="1" as="geometry">
            <mxPoint x="358.00000000000006" y="980" as="sourcePoint" />
            <mxPoint x="380.00000000000006" y="980" as="targetPoint" />
            <Array as="points">
              <mxPoint x="298.93" y="980.23" />
              <mxPoint x="298.93" y="980.23" />
            </Array>
          </mxGeometry>
        </mxCell>
        <mxCell id="24hsh32wNpXlRwZztjaE-94" value="" style="endArrow=none;html=1;rounded=0;strokeColor=#004C99;strokeWidth=2;edgeStyle=orthogonalEdgeStyle;curved=1;flowAnimation=0;shadow=0;" edge="1" parent="1">
          <mxGeometry width="50" height="50" relative="1" as="geometry">
            <mxPoint x="379.25" y="1100" as="sourcePoint" />
            <mxPoint x="399.9999999999998" y="1040" as="targetPoint" />
            <Array as="points">
              <mxPoint x="389.25" y="1100" />
              <mxPoint x="389.25" y="1040" />
            </Array>
          </mxGeometry>
        </mxCell>
        <mxCell id="24hsh32wNpXlRwZztjaE-95" value="" style="endArrow=none;html=1;rounded=1;strokeColor=#004C99;strokeWidth=2;edgeStyle=orthogonalEdgeStyle;curved=1;" edge="1" parent="1">
          <mxGeometry width="50" height="50" relative="1" as="geometry">
            <mxPoint x="358.00000000000006" y="1100" as="sourcePoint" />
            <mxPoint x="380.00000000000006" y="1100" as="targetPoint" />
            <Array as="points">
              <mxPoint x="270" y="1100" />
              <mxPoint x="270" y="1100" />
            </Array>
          </mxGeometry>
        </mxCell>
        <mxCell id="24hsh32wNpXlRwZztjaE-96" value="" style="endArrow=none;html=1;rounded=1;strokeColor=#004C99;strokeWidth=2;edgeStyle=orthogonalEdgeStyle;curved=1;" edge="1" parent="1">
          <mxGeometry width="50" height="50" relative="1" as="geometry">
            <mxPoint x="356.00000000000006" y="980" as="sourcePoint" />
            <mxPoint x="358" y="980" as="targetPoint" />
            <Array as="points">
              <mxPoint x="268" y="980" />
              <mxPoint x="268" y="980" />
            </Array>
          </mxGeometry>
        </mxCell>
        <mxCell id="wAouXe5rf_n1GyTMq2Kt-209" value="&lt;span style=&quot;font-size: 12px;&quot;&gt;Provider&lt;/span&gt;" style="text;html=1;align=left;verticalAlign=middle;whiteSpace=wrap;rounded=0;fontSize=14;fontColor=#004C99;fontStyle=0" parent="1" vertex="1">
          <mxGeometry x="258" y="968" width="55.25" height="20" as="geometry" />
        </mxCell>
        <mxCell id="wAouXe5rf_n1GyTMq2Kt-211" value="&lt;span style=&quot;font-size: 12px;&quot;&gt;Redux&lt;/span&gt;" style="text;html=1;align=left;verticalAlign=middle;whiteSpace=wrap;rounded=0;fontSize=14;fontColor=#004C99;fontStyle=0" parent="1" vertex="1">
          <mxGeometry x="258" y="1028" width="47.25" height="20" as="geometry" />
        </mxCell>
        <mxCell id="24hsh32wNpXlRwZztjaE-101" value="" style="endArrow=none;html=1;rounded=0;strokeColor=#004C99;strokeWidth=2;edgeStyle=orthogonalEdgeStyle;curved=1;flowAnimation=0;shadow=0;" edge="1" parent="1">
          <mxGeometry width="50" height="50" relative="1" as="geometry">
            <mxPoint x="449.9999999999998" y="850" as="sourcePoint" />
            <mxPoint x="469.9999999999998" y="880" as="targetPoint" />
            <Array as="points">
              <mxPoint x="459.9999999999998" y="850" />
              <mxPoint x="459.9999999999998" y="880" />
            </Array>
          </mxGeometry>
        </mxCell>
        <mxCell id="24hsh32wNpXlRwZztjaE-102" value="" style="endArrow=none;html=1;rounded=0;strokeColor=#004C99;strokeWidth=2;edgeStyle=orthogonalEdgeStyle;curved=1;" edge="1" parent="1">
          <mxGeometry width="50" height="50" relative="1" as="geometry">
            <mxPoint x="427.0647368421053" y="879.97" as="sourcePoint" />
            <mxPoint x="467.0647368421053" y="880.03" as="targetPoint" />
            <Array as="points">
              <mxPoint x="340" y="880" />
              <mxPoint x="340" y="880" />
            </Array>
          </mxGeometry>
        </mxCell>
        <mxCell id="24hsh32wNpXlRwZztjaE-103" value="" style="endArrow=none;html=1;rounded=0;strokeColor=#004C99;strokeWidth=2;edgeStyle=orthogonalEdgeStyle;curved=1;" edge="1" parent="1">
          <mxGeometry width="50" height="50" relative="1" as="geometry">
            <mxPoint x="449.9999999999998" y="910" as="sourcePoint" />
            <mxPoint x="469.9999999999998" y="880" as="targetPoint" />
            <Array as="points">
              <mxPoint x="459.9999999999998" y="910" />
              <mxPoint x="459.9999999999998" y="880" />
            </Array>
          </mxGeometry>
        </mxCell>
        <mxCell id="24hsh32wNpXlRwZztjaE-104" value="" style="endArrow=none;html=1;rounded=1;strokeColor=#004C99;strokeWidth=2;edgeStyle=orthogonalEdgeStyle;curved=1;" edge="1" parent="1">
          <mxGeometry width="50" height="50" relative="1" as="geometry">
            <mxPoint x="429.07000000000005" y="850" as="sourcePoint" />
            <mxPoint x="451.07000000000005" y="850" as="targetPoint" />
            <Array as="points">
              <mxPoint x="310" y="850" />
              <mxPoint x="310" y="850" />
            </Array>
          </mxGeometry>
        </mxCell>
        <mxCell id="24hsh32wNpXlRwZztjaE-105" value="" style="endArrow=none;html=1;rounded=0;strokeColor=#004C99;strokeWidth=2;edgeStyle=orthogonalEdgeStyle;curved=1;" edge="1" parent="1">
          <mxGeometry width="50" height="50" relative="1" as="geometry">
            <mxPoint x="451.07000000000005" y="910" as="sourcePoint" />
            <mxPoint x="437.07000000000005" y="910" as="targetPoint" />
            <Array as="points">
              <mxPoint x="384.5747368421053" y="909.81" />
              <mxPoint x="384.5747368421053" y="909.81" />
            </Array>
          </mxGeometry>
        </mxCell>
        <mxCell id="24hsh32wNpXlRwZztjaE-110" value="" style="endArrow=none;html=1;rounded=0;strokeColor=#004C99;strokeWidth=2;edgeStyle=orthogonalEdgeStyle;curved=1;flowAnimation=0;shadow=0;" edge="1" parent="1">
          <mxGeometry width="50" height="50" relative="1" as="geometry">
            <mxPoint x="379.9999999999998" y="691" as="sourcePoint" />
            <mxPoint x="399.9999999999998" y="721" as="targetPoint" />
            <Array as="points">
              <mxPoint x="389.9999999999998" y="691" />
              <mxPoint x="389.9999999999998" y="721" />
            </Array>
          </mxGeometry>
        </mxCell>
        <mxCell id="24hsh32wNpXlRwZztjaE-111" value="" style="endArrow=none;html=1;rounded=0;strokeColor=#004C99;strokeWidth=2;edgeStyle=orthogonalEdgeStyle;curved=1;" edge="1" parent="1">
          <mxGeometry width="50" height="50" relative="1" as="geometry">
            <mxPoint x="400" y="721" as="sourcePoint" />
            <mxPoint x="360" y="721" as="targetPoint" />
            <Array as="points">
              <mxPoint x="300" y="721" />
              <mxPoint x="300" y="721" />
            </Array>
          </mxGeometry>
        </mxCell>
        <mxCell id="24hsh32wNpXlRwZztjaE-112" value="" style="endArrow=none;html=1;rounded=0;strokeColor=#004C99;strokeWidth=2;edgeStyle=orthogonalEdgeStyle;curved=1;" edge="1" parent="1">
          <mxGeometry width="50" height="50" relative="1" as="geometry">
            <mxPoint x="379.9999999999998" y="751" as="sourcePoint" />
            <mxPoint x="399.9999999999998" y="721" as="targetPoint" />
            <Array as="points">
              <mxPoint x="389.9999999999998" y="751" />
              <mxPoint x="389.9999999999998" y="721" />
            </Array>
          </mxGeometry>
        </mxCell>
        <mxCell id="24hsh32wNpXlRwZztjaE-114" value="" style="endArrow=none;html=1;rounded=0;strokeColor=#004C99;strokeWidth=2;edgeStyle=orthogonalEdgeStyle;curved=1;" edge="1" parent="1">
          <mxGeometry width="50" height="50" relative="1" as="geometry">
            <mxPoint x="381.07000000000005" y="751" as="sourcePoint" />
            <mxPoint x="367.07000000000005" y="751" as="targetPoint" />
            <Array as="points">
              <mxPoint x="314.5747368421053" y="750.81" />
              <mxPoint x="314.5747368421053" y="750.81" />
            </Array>
          </mxGeometry>
        </mxCell>
        <mxCell id="24hsh32wNpXlRwZztjaE-116" value="" style="endArrow=none;html=1;rounded=0;strokeColor=#004C99;strokeWidth=2;edgeStyle=orthogonalEdgeStyle;curved=1;" edge="1" parent="1">
          <mxGeometry width="50" height="50" relative="1" as="geometry">
            <mxPoint x="380.5" y="691" as="sourcePoint" />
            <mxPoint x="310" y="691" as="targetPoint" />
            <Array as="points">
              <mxPoint x="250" y="691" />
              <mxPoint x="250" y="691" />
            </Array>
          </mxGeometry>
        </mxCell>
        <mxCell id="24hsh32wNpXlRwZztjaE-126" value="" style="endArrow=none;html=1;rounded=0;strokeColor=#004C99;strokeWidth=2;edgeStyle=orthogonalEdgeStyle;curved=1;flowAnimation=0;shadow=0;" edge="1" parent="1">
          <mxGeometry width="50" height="50" relative="1" as="geometry">
            <mxPoint x="469.9999999999998" y="529.95" as="sourcePoint" />
            <mxPoint x="489.9999999999998" y="559.95" as="targetPoint" />
            <Array as="points">
              <mxPoint x="479.9999999999998" y="529.95" />
              <mxPoint x="479.9999999999998" y="559.95" />
            </Array>
          </mxGeometry>
        </mxCell>
        <mxCell id="24hsh32wNpXlRwZztjaE-127" value="" style="endArrow=none;html=1;rounded=0;strokeColor=#004C99;strokeWidth=2;edgeStyle=orthogonalEdgeStyle;curved=1;" edge="1" parent="1">
          <mxGeometry width="50" height="50" relative="1" as="geometry">
            <mxPoint x="447.0647368421053" y="559.9200000000001" as="sourcePoint" />
            <mxPoint x="487.0647368421053" y="559.98" as="targetPoint" />
            <Array as="points">
              <mxPoint x="370" y="560" />
              <mxPoint x="370" y="560" />
            </Array>
          </mxGeometry>
        </mxCell>
        <mxCell id="24hsh32wNpXlRwZztjaE-128" value="" style="endArrow=none;html=1;rounded=0;strokeColor=#004C99;strokeWidth=2;edgeStyle=orthogonalEdgeStyle;curved=1;" edge="1" parent="1">
          <mxGeometry width="50" height="50" relative="1" as="geometry">
            <mxPoint x="469.9999999999998" y="589.95" as="sourcePoint" />
            <mxPoint x="489.9999999999998" y="559.95" as="targetPoint" />
            <Array as="points">
              <mxPoint x="479.9999999999998" y="589.95" />
              <mxPoint x="479.9999999999998" y="559.95" />
            </Array>
          </mxGeometry>
        </mxCell>
        <mxCell id="24hsh32wNpXlRwZztjaE-129" value="" style="endArrow=none;html=1;rounded=1;strokeColor=#004C99;strokeWidth=2;edgeStyle=orthogonalEdgeStyle;curved=1;" edge="1" parent="1">
          <mxGeometry width="50" height="50" relative="1" as="geometry">
            <mxPoint x="449.07000000000005" y="529.95" as="sourcePoint" />
            <mxPoint x="471.07000000000005" y="529.95" as="targetPoint" />
            <Array as="points">
              <mxPoint x="380" y="530" />
              <mxPoint x="380" y="530" />
            </Array>
          </mxGeometry>
        </mxCell>
        <mxCell id="24hsh32wNpXlRwZztjaE-130" value="" style="endArrow=none;html=1;rounded=0;strokeColor=#004C99;strokeWidth=2;edgeStyle=orthogonalEdgeStyle;curved=1;" edge="1" parent="1">
          <mxGeometry width="50" height="50" relative="1" as="geometry">
            <mxPoint x="471.07000000000005" y="589.95" as="sourcePoint" />
            <mxPoint x="457.07000000000005" y="589.95" as="targetPoint" />
            <Array as="points">
              <mxPoint x="404.57473684210527" y="589.76" />
              <mxPoint x="404.57473684210527" y="589.76" />
            </Array>
          </mxGeometry>
        </mxCell>
        <mxCell id="24hsh32wNpXlRwZztjaE-134" value="" style="endArrow=none;html=1;rounded=0;strokeColor=#004C99;strokeWidth=2;edgeStyle=orthogonalEdgeStyle;curved=1;flowAnimation=0;shadow=0;" edge="1" parent="1">
          <mxGeometry width="50" height="50" relative="1" as="geometry">
            <mxPoint x="429" y="372" as="sourcePoint" />
            <mxPoint x="450" y="402" as="targetPoint" />
            <Array as="points">
              <mxPoint x="439" y="372" />
              <mxPoint x="439" y="402" />
            </Array>
          </mxGeometry>
        </mxCell>
        <mxCell id="24hsh32wNpXlRwZztjaE-135" value="" style="endArrow=none;html=1;rounded=0;strokeColor=#004C99;strokeWidth=2;edgeStyle=orthogonalEdgeStyle;curved=1;" edge="1" parent="1">
          <mxGeometry width="50" height="50" relative="1" as="geometry">
            <mxPoint x="400" y="402" as="sourcePoint" />
            <mxPoint x="449" y="402" as="targetPoint" />
            <Array as="points">
              <mxPoint x="390" y="402" />
              <mxPoint x="390" y="402" />
            </Array>
          </mxGeometry>
        </mxCell>
        <mxCell id="24hsh32wNpXlRwZztjaE-136" value="" style="endArrow=none;html=1;rounded=0;strokeColor=#004C99;strokeWidth=2;edgeStyle=orthogonalEdgeStyle;curved=1;" edge="1" parent="1">
          <mxGeometry width="50" height="50" relative="1" as="geometry">
            <mxPoint x="428.9999999999998" y="431.51" as="sourcePoint" />
            <mxPoint x="448.9999999999998" y="401.51" as="targetPoint" />
            <Array as="points">
              <mxPoint x="438.9999999999998" y="431.51" />
              <mxPoint x="438.9999999999998" y="401.51" />
            </Array>
          </mxGeometry>
        </mxCell>
        <mxCell id="24hsh32wNpXlRwZztjaE-137" value="" style="endArrow=none;html=1;rounded=1;strokeColor=#004C99;strokeWidth=2;edgeStyle=orthogonalEdgeStyle;curved=1;" edge="1" parent="1">
          <mxGeometry width="50" height="50" relative="1" as="geometry">
            <mxPoint x="407.75000000000006" y="372" as="sourcePoint" />
            <mxPoint x="429.75000000000006" y="372" as="targetPoint" />
            <Array as="points">
              <mxPoint x="350" y="372" />
              <mxPoint x="350" y="372" />
            </Array>
          </mxGeometry>
        </mxCell>
        <mxCell id="24hsh32wNpXlRwZztjaE-139" value="" style="endArrow=none;html=1;rounded=0;strokeColor=#004C99;strokeWidth=2;edgeStyle=orthogonalEdgeStyle;curved=1;flowAnimation=0;shadow=0;" edge="1" parent="1">
          <mxGeometry width="50" height="50" relative="1" as="geometry">
            <mxPoint x="429" y="342" as="sourcePoint" />
            <mxPoint x="449.7499999999998" y="402" as="targetPoint" />
            <Array as="points">
              <mxPoint x="439" y="342" />
              <mxPoint x="439" y="402" />
            </Array>
          </mxGeometry>
        </mxCell>
        <mxCell id="24hsh32wNpXlRwZztjaE-141" value="" style="endArrow=none;html=1;rounded=0;strokeColor=#004C99;strokeWidth=2;edgeStyle=orthogonalEdgeStyle;curved=1;flowAnimation=0;shadow=0;" edge="1" parent="1">
          <mxGeometry width="50" height="50" relative="1" as="geometry">
            <mxPoint x="428.25" y="462" as="sourcePoint" />
            <mxPoint x="448.9999999999998" y="402" as="targetPoint" />
            <Array as="points">
              <mxPoint x="438.25" y="462" />
              <mxPoint x="438.25" y="402" />
            </Array>
          </mxGeometry>
        </mxCell>
        <mxCell id="24hsh32wNpXlRwZztjaE-142" value="" style="endArrow=none;html=1;rounded=1;strokeColor=#004C99;strokeWidth=2;edgeStyle=orthogonalEdgeStyle;curved=1;" edge="1" parent="1">
          <mxGeometry width="50" height="50" relative="1" as="geometry">
            <mxPoint x="429" y="462" as="sourcePoint" />
            <mxPoint x="422" y="462" as="targetPoint" />
            <Array as="points">
              <mxPoint x="330" y="462" />
              <mxPoint x="330" y="462" />
            </Array>
          </mxGeometry>
        </mxCell>
        <mxCell id="24hsh32wNpXlRwZztjaE-143" value="" style="endArrow=none;html=1;rounded=1;strokeColor=#004C99;strokeWidth=2;edgeStyle=orthogonalEdgeStyle;curved=1;" edge="1" parent="1">
          <mxGeometry width="50" height="50" relative="1" as="geometry">
            <mxPoint x="405.00000000000006" y="342" as="sourcePoint" />
            <mxPoint x="430" y="342" as="targetPoint" />
            <Array as="points">
              <mxPoint x="360" y="342" />
              <mxPoint x="360" y="342" />
            </Array>
          </mxGeometry>
        </mxCell>
        <mxCell id="24hsh32wNpXlRwZztjaE-146" value="" style="endArrow=none;html=1;rounded=0;strokeColor=#004C99;strokeWidth=2;edgeStyle=orthogonalEdgeStyle;curved=1;" edge="1" parent="1">
          <mxGeometry width="50" height="50" relative="1" as="geometry">
            <mxPoint x="401" y="431.5" as="sourcePoint" />
            <mxPoint x="430" y="431.5" as="targetPoint" />
            <Array as="points">
              <mxPoint x="400" y="432" />
            </Array>
          </mxGeometry>
        </mxCell>
        <mxCell id="24hsh32wNpXlRwZztjaE-149" value="" style="endArrow=none;html=1;rounded=1;strokeColor=#004C99;strokeWidth=2;curved=0;" edge="1" parent="1">
          <mxGeometry width="50" height="50" relative="1" as="geometry">
            <mxPoint x="236.5" y="446.21000000000004" as="sourcePoint" />
            <mxPoint x="257.5" y="446.21000000000004" as="targetPoint" />
            <Array as="points">
              <mxPoint x="210" y="446" />
              <mxPoint x="220" y="446" />
              <mxPoint x="226.5" y="446.21000000000004" />
            </Array>
          </mxGeometry>
        </mxCell>
        <mxCell id="24hsh32wNpXlRwZztjaE-150" value="" style="endArrow=none;html=1;rounded=0;strokeColor=#004C99;strokeWidth=2;edgeStyle=orthogonalEdgeStyle;curved=1;flowAnimation=0;shadow=0;entryX=0.001;entryY=0.476;entryDx=0;entryDy=0;entryPerimeter=0;" edge="1" parent="1">
          <mxGeometry width="50" height="50" relative="1" as="geometry">
            <mxPoint x="257.5" y="476.21000000000004" as="sourcePoint" />
            <mxPoint x="276.5" y="461.21000000000004" as="targetPoint" />
            <Array as="points">
              <mxPoint x="266.5" y="476.21000000000004" />
              <mxPoint x="266.5" y="461.21000000000004" />
            </Array>
          </mxGeometry>
        </mxCell>
        <mxCell id="24hsh32wNpXlRwZztjaE-151" value="" style="endArrow=none;html=1;rounded=1;strokeColor=#004C99;strokeWidth=2;curved=0;" edge="1" parent="1">
          <mxGeometry width="50" height="50" relative="1" as="geometry">
            <mxPoint x="258.5" y="476.20000000000005" as="sourcePoint" />
            <mxPoint x="254.5" y="476.20000000000005" as="targetPoint" />
            <Array as="points">
              <mxPoint x="216.5" y="476.5" />
            </Array>
          </mxGeometry>
        </mxCell>
        <mxCell id="24hsh32wNpXlRwZztjaE-152" value="" style="endArrow=none;html=1;rounded=0;strokeColor=#004C99;strokeWidth=2;edgeStyle=orthogonalEdgeStyle;curved=1;flowAnimation=0;shadow=0;entryX=0.001;entryY=0.476;entryDx=0;entryDy=0;entryPerimeter=0;" edge="1" parent="1">
          <mxGeometry width="50" height="50" relative="1" as="geometry">
            <mxPoint x="257.5" y="446.21000000000004" as="sourcePoint" />
            <mxPoint x="276.5" y="461.21000000000004" as="targetPoint" />
            <Array as="points">
              <mxPoint x="266.5" y="446.21000000000004" />
              <mxPoint x="266.5" y="461.21000000000004" />
            </Array>
          </mxGeometry>
        </mxCell>
        <mxCell id="24hsh32wNpXlRwZztjaE-155" value="" style="endArrow=none;html=1;rounded=1;strokeColor=#004C99;strokeWidth=2;curved=0;" edge="1" parent="1">
          <mxGeometry width="50" height="50" relative="1" as="geometry">
            <mxPoint x="300" y="186.18000000000006" as="sourcePoint" />
            <mxPoint x="321" y="186.18000000000006" as="targetPoint" />
            <Array as="points">
              <mxPoint x="273.5" y="185.97000000000003" />
              <mxPoint x="240" y="186" />
              <mxPoint x="283.5" y="185.97000000000003" />
              <mxPoint x="290" y="186.18000000000006" />
            </Array>
          </mxGeometry>
        </mxCell>
        <mxCell id="24hsh32wNpXlRwZztjaE-156" value="" style="endArrow=none;html=1;rounded=0;strokeColor=#004C99;strokeWidth=2;edgeStyle=orthogonalEdgeStyle;curved=1;flowAnimation=0;shadow=0;entryX=0.001;entryY=0.476;entryDx=0;entryDy=0;entryPerimeter=0;" edge="1" parent="1">
          <mxGeometry width="50" height="50" relative="1" as="geometry">
            <mxPoint x="321" y="216.18000000000006" as="sourcePoint" />
            <mxPoint x="340" y="201.18000000000006" as="targetPoint" />
            <Array as="points">
              <mxPoint x="330" y="216.18000000000006" />
              <mxPoint x="330" y="201.18000000000006" />
            </Array>
          </mxGeometry>
        </mxCell>
        <mxCell id="24hsh32wNpXlRwZztjaE-157" value="" style="endArrow=none;html=1;rounded=1;strokeColor=#004C99;strokeWidth=2;curved=0;" edge="1" parent="1">
          <mxGeometry width="50" height="50" relative="1" as="geometry">
            <mxPoint x="322" y="216.17000000000007" as="sourcePoint" />
            <mxPoint x="318" y="216.17000000000007" as="targetPoint" />
            <Array as="points">
              <mxPoint x="280" y="216.47000000000003" />
            </Array>
          </mxGeometry>
        </mxCell>
        <mxCell id="24hsh32wNpXlRwZztjaE-158" value="" style="endArrow=none;html=1;rounded=0;strokeColor=#004C99;strokeWidth=2;edgeStyle=orthogonalEdgeStyle;curved=1;flowAnimation=0;shadow=0;entryX=0.001;entryY=0.476;entryDx=0;entryDy=0;entryPerimeter=0;" edge="1" parent="1">
          <mxGeometry width="50" height="50" relative="1" as="geometry">
            <mxPoint x="321" y="186.18000000000006" as="sourcePoint" />
            <mxPoint x="340" y="201.18000000000006" as="targetPoint" />
            <Array as="points">
              <mxPoint x="330" y="186.18000000000006" />
              <mxPoint x="330" y="201.18000000000006" />
            </Array>
          </mxGeometry>
        </mxCell>
        <mxCell id="24hsh32wNpXlRwZztjaE-159" value="" style="endArrow=none;html=1;rounded=0;strokeColor=#004C99;strokeWidth=2;edgeStyle=orthogonalEdgeStyle;curved=1;flowAnimation=0;shadow=0;entryX=-0.029;entryY=0.664;entryDx=0;entryDy=0;entryPerimeter=0;" edge="1" parent="1">
          <mxGeometry width="50" height="50" relative="1" as="geometry">
            <mxPoint x="190" y="238" as="sourcePoint" />
            <mxPoint x="204.91200000000003" y="217.27999999999997" as="targetPoint" />
            <Array as="points">
              <mxPoint x="200" y="238" />
              <mxPoint x="200" y="217" />
            </Array>
          </mxGeometry>
        </mxCell>
        <mxCell id="24hsh32wNpXlRwZztjaE-160" value="" style="endArrow=none;html=1;rounded=1;strokeColor=#004C99;strokeWidth=2;curved=0;" edge="1" parent="1">
          <mxGeometry width="50" height="50" relative="1" as="geometry">
            <mxPoint x="190" y="238" as="sourcePoint" />
            <mxPoint x="180" y="238" as="targetPoint" />
            <Array as="points">
              <mxPoint x="150" y="238" />
            </Array>
          </mxGeometry>
        </mxCell>
        <mxCell id="24hsh32wNpXlRwZztjaE-161" value="" style="endArrow=none;html=1;rounded=1;strokeColor=#004C99;strokeWidth=2;curved=0;" edge="1" parent="1">
          <mxGeometry width="50" height="50" relative="1" as="geometry">
            <mxPoint x="167" y="169.51000000000005" as="sourcePoint" />
            <mxPoint x="188" y="169.51000000000005" as="targetPoint" />
            <Array as="points">
              <mxPoint x="130" y="170" />
              <mxPoint x="157" y="169.51000000000005" />
            </Array>
          </mxGeometry>
        </mxCell>
        <mxCell id="24hsh32wNpXlRwZztjaE-162" value="" style="endArrow=none;html=1;rounded=0;strokeColor=#004C99;strokeWidth=2;edgeStyle=orthogonalEdgeStyle;curved=1;flowAnimation=0;shadow=0;entryX=0.001;entryY=0.476;entryDx=0;entryDy=0;entryPerimeter=0;" edge="1" parent="1">
          <mxGeometry width="50" height="50" relative="1" as="geometry">
            <mxPoint x="188" y="199.51000000000005" as="sourcePoint" />
            <mxPoint x="207" y="184.51000000000005" as="targetPoint" />
            <Array as="points">
              <mxPoint x="197" y="199.51000000000005" />
              <mxPoint x="197" y="184.51000000000005" />
            </Array>
          </mxGeometry>
        </mxCell>
        <mxCell id="24hsh32wNpXlRwZztjaE-163" value="" style="endArrow=none;html=1;rounded=1;strokeColor=#004C99;strokeWidth=2;curved=0;" edge="1" parent="1">
          <mxGeometry width="50" height="50" relative="1" as="geometry">
            <mxPoint x="189" y="199.50000000000006" as="sourcePoint" />
            <mxPoint x="185" y="199.50000000000006" as="targetPoint" />
            <Array as="points">
              <mxPoint x="160" y="200" />
              <mxPoint x="180" y="200" />
            </Array>
          </mxGeometry>
        </mxCell>
        <mxCell id="24hsh32wNpXlRwZztjaE-164" value="" style="endArrow=none;html=1;rounded=0;strokeColor=#004C99;strokeWidth=2;edgeStyle=orthogonalEdgeStyle;curved=1;flowAnimation=0;shadow=0;entryX=0.001;entryY=0.476;entryDx=0;entryDy=0;entryPerimeter=0;" edge="1" parent="1">
          <mxGeometry width="50" height="50" relative="1" as="geometry">
            <mxPoint x="188" y="169.51000000000005" as="sourcePoint" />
            <mxPoint x="207" y="184.51000000000005" as="targetPoint" />
            <Array as="points">
              <mxPoint x="197" y="169.51000000000005" />
              <mxPoint x="197" y="184.51000000000005" />
            </Array>
          </mxGeometry>
        </mxCell>
        <mxCell id="24hsh32wNpXlRwZztjaE-165" value="" style="endArrow=none;html=1;rounded=0;strokeColor=#004C99;strokeWidth=2;edgeStyle=orthogonalEdgeStyle;curved=1;flowAnimation=0;shadow=0;" edge="1" parent="1">
          <mxGeometry width="50" height="50" relative="1" as="geometry">
            <mxPoint x="771.75" y="250" as="sourcePoint" />
            <mxPoint x="750.75" y="280" as="targetPoint" />
            <Array as="points">
              <mxPoint x="761.75" y="250" />
              <mxPoint x="761.75" y="280" />
            </Array>
          </mxGeometry>
        </mxCell>
        <mxCell id="24hsh32wNpXlRwZztjaE-166" value="" style="endArrow=none;html=1;rounded=0;strokeColor=#004C99;strokeWidth=2;edgeStyle=orthogonalEdgeStyle;curved=1;" edge="1" parent="1">
          <mxGeometry width="50" height="50" relative="1" as="geometry">
            <mxPoint x="800" y="279.89" as="sourcePoint" />
            <mxPoint x="751" y="279.89" as="targetPoint" />
            <Array as="points">
              <mxPoint x="960" y="280" />
              <mxPoint x="960" y="280" />
            </Array>
          </mxGeometry>
        </mxCell>
        <mxCell id="24hsh32wNpXlRwZztjaE-167" value="" style="endArrow=none;html=1;rounded=0;strokeColor=#004C99;strokeWidth=2;edgeStyle=orthogonalEdgeStyle;curved=1;" edge="1" parent="1">
          <mxGeometry width="50" height="50" relative="1" as="geometry">
            <mxPoint x="769.9999999999998" y="310.01" as="sourcePoint" />
            <mxPoint x="749.9999999999998" y="280.01" as="targetPoint" />
            <Array as="points">
              <mxPoint x="759.9999999999998" y="310.01" />
              <mxPoint x="759.9999999999998" y="280.01" />
            </Array>
          </mxGeometry>
        </mxCell>
        <mxCell id="24hsh32wNpXlRwZztjaE-168" value="" style="endArrow=none;html=1;rounded=1;strokeColor=#004C99;strokeWidth=2;edgeStyle=orthogonalEdgeStyle;curved=1;" edge="1" parent="1">
          <mxGeometry width="50" height="50" relative="1" as="geometry">
            <mxPoint x="792" y="250" as="sourcePoint" />
            <mxPoint x="770" y="250" as="targetPoint" />
            <Array as="points">
              <mxPoint x="920" y="250" />
              <mxPoint x="920" y="250" />
            </Array>
          </mxGeometry>
        </mxCell>
        <mxCell id="24hsh32wNpXlRwZztjaE-169" value="" style="endArrow=none;html=1;rounded=0;strokeColor=#004C99;strokeWidth=2;edgeStyle=orthogonalEdgeStyle;curved=1;flowAnimation=0;shadow=0;" edge="1" parent="1">
          <mxGeometry width="50" height="50" relative="1" as="geometry">
            <mxPoint x="771.4999999999995" y="220" as="sourcePoint" />
            <mxPoint x="750.7499999999998" y="280" as="targetPoint" />
            <Array as="points">
              <mxPoint x="761.4999999999995" y="220" />
              <mxPoint x="761.4999999999995" y="280" />
            </Array>
          </mxGeometry>
        </mxCell>
        <mxCell id="24hsh32wNpXlRwZztjaE-170" value="" style="endArrow=none;html=1;rounded=0;strokeColor=#004C99;strokeWidth=2;edgeStyle=orthogonalEdgeStyle;curved=1;flowAnimation=0;shadow=0;" edge="1" parent="1">
          <mxGeometry width="50" height="50" relative="1" as="geometry">
            <mxPoint x="770.7499999999995" y="340" as="sourcePoint" />
            <mxPoint x="749.9999999999998" y="280" as="targetPoint" />
            <Array as="points">
              <mxPoint x="760.7499999999995" y="340" />
              <mxPoint x="760.7499999999995" y="280" />
            </Array>
          </mxGeometry>
        </mxCell>
        <mxCell id="24hsh32wNpXlRwZztjaE-171" value="" style="endArrow=none;html=1;rounded=1;strokeColor=#004C99;strokeWidth=2;edgeStyle=orthogonalEdgeStyle;curved=1;" edge="1" parent="1">
          <mxGeometry width="50" height="50" relative="1" as="geometry">
            <mxPoint x="770" y="310" as="sourcePoint" />
            <mxPoint x="780" y="310" as="targetPoint" />
            <Array as="points">
              <mxPoint x="960" y="310" />
              <mxPoint x="960" y="310" />
            </Array>
          </mxGeometry>
        </mxCell>
        <mxCell id="24hsh32wNpXlRwZztjaE-172" value="" style="endArrow=none;html=1;rounded=1;strokeColor=#004C99;strokeWidth=2;edgeStyle=orthogonalEdgeStyle;curved=1;" edge="1" parent="1">
          <mxGeometry width="50" height="50" relative="1" as="geometry">
            <mxPoint x="797" y="220" as="sourcePoint" />
            <mxPoint x="770" y="220" as="targetPoint" />
            <Array as="points">
              <mxPoint x="970" y="220" />
              <mxPoint x="970" y="220" />
            </Array>
          </mxGeometry>
        </mxCell>
        <mxCell id="24hsh32wNpXlRwZztjaE-173" value="" style="endArrow=none;html=1;rounded=0;strokeColor=#004C99;strokeWidth=2;edgeStyle=orthogonalEdgeStyle;curved=1;" edge="1" parent="1">
          <mxGeometry width="50" height="50" relative="1" as="geometry">
            <mxPoint x="790" y="340" as="sourcePoint" />
            <mxPoint x="770.0000000000005" y="339.95" as="targetPoint" />
            <Array as="points">
              <mxPoint x="800.0000000000005" y="340.45" />
            </Array>
          </mxGeometry>
        </mxCell>
        <mxCell id="24hsh32wNpXlRwZztjaE-189" value="" style="endArrow=none;html=1;rounded=0;strokeColor=#004C99;strokeWidth=2;edgeStyle=orthogonalEdgeStyle;curved=1;flowAnimation=0;shadow=0;" edge="1" parent="1">
          <mxGeometry width="50" height="50" relative="1" as="geometry">
            <mxPoint x="771.75" y="450" as="sourcePoint" />
            <mxPoint x="750.75" y="480" as="targetPoint" />
            <Array as="points">
              <mxPoint x="761.75" y="450" />
              <mxPoint x="761.75" y="480" />
            </Array>
          </mxGeometry>
        </mxCell>
        <mxCell id="24hsh32wNpXlRwZztjaE-190" value="" style="endArrow=none;html=1;rounded=0;strokeColor=#004C99;strokeWidth=2;edgeStyle=orthogonalEdgeStyle;curved=1;" edge="1" parent="1">
          <mxGeometry width="50" height="50" relative="1" as="geometry">
            <mxPoint x="770" y="480" as="sourcePoint" />
            <mxPoint x="751" y="479.89" as="targetPoint" />
            <Array as="points">
              <mxPoint x="860" y="480" />
              <mxPoint x="860" y="480" />
            </Array>
          </mxGeometry>
        </mxCell>
        <mxCell id="24hsh32wNpXlRwZztjaE-191" value="" style="endArrow=none;html=1;rounded=0;strokeColor=#004C99;strokeWidth=2;edgeStyle=orthogonalEdgeStyle;curved=1;" edge="1" parent="1">
          <mxGeometry width="50" height="50" relative="1" as="geometry">
            <mxPoint x="769.9999999999998" y="510.01" as="sourcePoint" />
            <mxPoint x="749.9999999999998" y="480.01" as="targetPoint" />
            <Array as="points">
              <mxPoint x="759.9999999999998" y="510.01" />
              <mxPoint x="759.9999999999998" y="480.01" />
            </Array>
          </mxGeometry>
        </mxCell>
        <mxCell id="24hsh32wNpXlRwZztjaE-192" value="" style="endArrow=none;html=1;rounded=1;strokeColor=#004C99;strokeWidth=2;edgeStyle=orthogonalEdgeStyle;curved=1;" edge="1" parent="1">
          <mxGeometry width="50" height="50" relative="1" as="geometry">
            <mxPoint x="792" y="450" as="sourcePoint" />
            <mxPoint x="770" y="450" as="targetPoint" />
            <Array as="points">
              <mxPoint x="850" y="450" />
              <mxPoint x="850" y="450" />
            </Array>
          </mxGeometry>
        </mxCell>
        <mxCell id="24hsh32wNpXlRwZztjaE-195" value="" style="endArrow=none;html=1;rounded=1;strokeColor=#004C99;strokeWidth=2;edgeStyle=orthogonalEdgeStyle;curved=1;" edge="1" parent="1">
          <mxGeometry width="50" height="50" relative="1" as="geometry">
            <mxPoint x="770" y="510" as="sourcePoint" />
            <mxPoint x="790" y="510" as="targetPoint" />
            <Array as="points">
              <mxPoint x="800" y="510" />
              <mxPoint x="800" y="510" />
            </Array>
          </mxGeometry>
        </mxCell>
        <mxCell id="24hsh32wNpXlRwZztjaE-201" value="" style="endArrow=none;html=1;rounded=0;strokeColor=#004C99;strokeWidth=2;edgeStyle=orthogonalEdgeStyle;curved=1;flowAnimation=0;shadow=0;" edge="1" parent="1">
          <mxGeometry width="50" height="50" relative="1" as="geometry">
            <mxPoint x="821.75" y="610" as="sourcePoint" />
            <mxPoint x="800.75" y="640" as="targetPoint" />
            <Array as="points">
              <mxPoint x="811.75" y="610" />
              <mxPoint x="811.75" y="640" />
            </Array>
          </mxGeometry>
        </mxCell>
        <mxCell id="24hsh32wNpXlRwZztjaE-202" value="" style="endArrow=none;html=1;rounded=0;strokeColor=#004C99;strokeWidth=2;edgeStyle=orthogonalEdgeStyle;curved=1;" edge="1" parent="1">
          <mxGeometry width="50" height="50" relative="1" as="geometry">
            <mxPoint x="830" y="640" as="sourcePoint" />
            <mxPoint x="801" y="639.89" as="targetPoint" />
            <Array as="points">
              <mxPoint x="840" y="640" />
              <mxPoint x="840" y="640" />
            </Array>
          </mxGeometry>
        </mxCell>
        <mxCell id="24hsh32wNpXlRwZztjaE-203" value="" style="endArrow=none;html=1;rounded=0;strokeColor=#004C99;strokeWidth=2;edgeStyle=orthogonalEdgeStyle;curved=1;" edge="1" parent="1">
          <mxGeometry width="50" height="50" relative="1" as="geometry">
            <mxPoint x="819.9999999999998" y="670.01" as="sourcePoint" />
            <mxPoint x="799.9999999999998" y="640.01" as="targetPoint" />
            <Array as="points">
              <mxPoint x="809.9999999999998" y="670.01" />
              <mxPoint x="809.9999999999998" y="640.01" />
            </Array>
          </mxGeometry>
        </mxCell>
        <mxCell id="24hsh32wNpXlRwZztjaE-204" value="" style="endArrow=none;html=1;rounded=1;strokeColor=#004C99;strokeWidth=2;edgeStyle=orthogonalEdgeStyle;curved=1;" edge="1" parent="1">
          <mxGeometry width="50" height="50" relative="1" as="geometry">
            <mxPoint x="842" y="610" as="sourcePoint" />
            <mxPoint x="820" y="610" as="targetPoint" />
            <Array as="points">
              <mxPoint x="1040" y="610" />
              <mxPoint x="1040" y="610" />
            </Array>
          </mxGeometry>
        </mxCell>
        <mxCell id="24hsh32wNpXlRwZztjaE-205" value="" style="endArrow=none;html=1;rounded=1;strokeColor=#004C99;strokeWidth=2;edgeStyle=orthogonalEdgeStyle;curved=1;" edge="1" parent="1">
          <mxGeometry width="50" height="50" relative="1" as="geometry">
            <mxPoint x="820" y="670" as="sourcePoint" />
            <mxPoint x="840" y="670" as="targetPoint" />
            <Array as="points">
              <mxPoint x="970" y="670" />
              <mxPoint x="970" y="670" />
            </Array>
          </mxGeometry>
        </mxCell>
        <mxCell id="24hsh32wNpXlRwZztjaE-209" value="" style="endArrow=none;html=1;rounded=0;strokeColor=#004C99;strokeWidth=2;edgeStyle=orthogonalEdgeStyle;curved=1;flowAnimation=0;shadow=0;" edge="1" parent="1">
          <mxGeometry width="50" height="50" relative="1" as="geometry">
            <mxPoint x="751.75" y="769.8" as="sourcePoint" />
            <mxPoint x="730.75" y="799.8" as="targetPoint" />
            <Array as="points">
              <mxPoint x="741.75" y="769.8" />
              <mxPoint x="741.75" y="799.8" />
            </Array>
          </mxGeometry>
        </mxCell>
        <mxCell id="24hsh32wNpXlRwZztjaE-210" value="" style="endArrow=none;html=1;rounded=0;strokeColor=#004C99;strokeWidth=2;edgeStyle=orthogonalEdgeStyle;curved=1;" edge="1" parent="1">
          <mxGeometry width="50" height="50" relative="1" as="geometry">
            <mxPoint x="830" y="800" as="sourcePoint" />
            <mxPoint x="731.62" y="799.9999999999999" as="targetPoint" />
            <Array as="points">
              <mxPoint x="850" y="800" />
              <mxPoint x="850" y="800" />
            </Array>
          </mxGeometry>
        </mxCell>
        <mxCell id="24hsh32wNpXlRwZztjaE-211" value="" style="endArrow=none;html=1;rounded=0;strokeColor=#004C99;strokeWidth=2;edgeStyle=orthogonalEdgeStyle;curved=1;" edge="1" parent="1">
          <mxGeometry width="50" height="50" relative="1" as="geometry">
            <mxPoint x="749.9999999999998" y="829.81" as="sourcePoint" />
            <mxPoint x="729.9999999999998" y="799.81" as="targetPoint" />
            <Array as="points">
              <mxPoint x="739.9999999999998" y="829.81" />
              <mxPoint x="739.9999999999998" y="799.81" />
            </Array>
          </mxGeometry>
        </mxCell>
        <mxCell id="24hsh32wNpXlRwZztjaE-212" value="" style="endArrow=none;html=1;rounded=1;strokeColor=#004C99;strokeWidth=2;edgeStyle=orthogonalEdgeStyle;curved=1;" edge="1" parent="1">
          <mxGeometry width="50" height="50" relative="1" as="geometry">
            <mxPoint x="750" y="770" as="sourcePoint" />
            <mxPoint x="750" y="770" as="targetPoint" />
            <Array as="points">
              <mxPoint x="780" y="769.93" />
              <mxPoint x="780" y="769.93" />
            </Array>
          </mxGeometry>
        </mxCell>
        <mxCell id="24hsh32wNpXlRwZztjaE-213" value="" style="endArrow=none;html=1;rounded=1;strokeColor=#004C99;strokeWidth=2;edgeStyle=orthogonalEdgeStyle;curved=1;" edge="1" parent="1">
          <mxGeometry width="50" height="50" relative="1" as="geometry">
            <mxPoint x="750" y="829.8" as="sourcePoint" />
            <mxPoint x="770" y="829.8" as="targetPoint" />
            <Array as="points">
              <mxPoint x="890" y="830" />
              <mxPoint x="890" y="830" />
            </Array>
          </mxGeometry>
        </mxCell>
        <mxCell id="24hsh32wNpXlRwZztjaE-219" value="" style="endArrow=none;html=1;rounded=0;strokeColor=#004C99;strokeWidth=2;edgeStyle=orthogonalEdgeStyle;curved=1;flowAnimation=0;shadow=0;" edge="1" parent="1">
          <mxGeometry width="50" height="50" relative="1" as="geometry">
            <mxPoint x="819.77" y="931" as="sourcePoint" />
            <mxPoint x="798.77" y="961" as="targetPoint" />
            <Array as="points">
              <mxPoint x="809.77" y="931" />
              <mxPoint x="809.77" y="961" />
            </Array>
          </mxGeometry>
        </mxCell>
        <mxCell id="24hsh32wNpXlRwZztjaE-220" value="" style="endArrow=none;html=1;rounded=0;strokeColor=#004C99;strokeWidth=2;edgeStyle=orthogonalEdgeStyle;curved=1;" edge="1" parent="1">
          <mxGeometry width="50" height="50" relative="1" as="geometry">
            <mxPoint x="848.02" y="960.89" as="sourcePoint" />
            <mxPoint x="799.02" y="960.89" as="targetPoint" />
            <Array as="points">
              <mxPoint x="960" y="960" />
              <mxPoint x="960" y="960" />
            </Array>
          </mxGeometry>
        </mxCell>
        <mxCell id="24hsh32wNpXlRwZztjaE-221" value="" style="endArrow=none;html=1;rounded=0;strokeColor=#004C99;strokeWidth=2;edgeStyle=orthogonalEdgeStyle;curved=1;" edge="1" parent="1">
          <mxGeometry width="50" height="50" relative="1" as="geometry">
            <mxPoint x="818.0199999999998" y="991.01" as="sourcePoint" />
            <mxPoint x="798.0199999999998" y="961.01" as="targetPoint" />
            <Array as="points">
              <mxPoint x="808.0199999999998" y="991.01" />
              <mxPoint x="808.0199999999998" y="961.01" />
            </Array>
          </mxGeometry>
        </mxCell>
        <mxCell id="24hsh32wNpXlRwZztjaE-222" value="" style="endArrow=none;html=1;rounded=1;strokeColor=#004C99;strokeWidth=2;edgeStyle=orthogonalEdgeStyle;curved=1;" edge="1" parent="1">
          <mxGeometry width="50" height="50" relative="1" as="geometry">
            <mxPoint x="840.02" y="931" as="sourcePoint" />
            <mxPoint x="818.02" y="931" as="targetPoint" />
            <Array as="points">
              <mxPoint x="940" y="931" />
              <mxPoint x="940" y="931" />
            </Array>
          </mxGeometry>
        </mxCell>
        <mxCell id="24hsh32wNpXlRwZztjaE-223" value="" style="endArrow=none;html=1;rounded=0;strokeColor=#004C99;strokeWidth=2;edgeStyle=orthogonalEdgeStyle;curved=1;flowAnimation=0;shadow=0;" edge="1" parent="1">
          <mxGeometry width="50" height="50" relative="1" as="geometry">
            <mxPoint x="819.5199999999995" y="901" as="sourcePoint" />
            <mxPoint x="798.7699999999998" y="961" as="targetPoint" />
            <Array as="points">
              <mxPoint x="809.5199999999995" y="901" />
              <mxPoint x="809.5199999999995" y="961" />
            </Array>
          </mxGeometry>
        </mxCell>
        <mxCell id="24hsh32wNpXlRwZztjaE-224" value="" style="endArrow=none;html=1;rounded=0;strokeColor=#004C99;strokeWidth=2;edgeStyle=orthogonalEdgeStyle;curved=1;flowAnimation=0;shadow=0;" edge="1" parent="1">
          <mxGeometry width="50" height="50" relative="1" as="geometry">
            <mxPoint x="818.7699999999995" y="1021" as="sourcePoint" />
            <mxPoint x="798.0199999999998" y="961" as="targetPoint" />
            <Array as="points">
              <mxPoint x="808.7699999999995" y="1021" />
              <mxPoint x="808.7699999999995" y="961" />
            </Array>
          </mxGeometry>
        </mxCell>
        <mxCell id="24hsh32wNpXlRwZztjaE-225" value="" style="endArrow=none;html=1;rounded=1;strokeColor=#004C99;strokeWidth=2;edgeStyle=orthogonalEdgeStyle;curved=1;" edge="1" parent="1">
          <mxGeometry width="50" height="50" relative="1" as="geometry">
            <mxPoint x="818.02" y="991" as="sourcePoint" />
            <mxPoint x="828.02" y="991" as="targetPoint" />
            <Array as="points">
              <mxPoint x="940" y="991" />
              <mxPoint x="940" y="991" />
            </Array>
          </mxGeometry>
        </mxCell>
        <mxCell id="24hsh32wNpXlRwZztjaE-226" value="" style="endArrow=none;html=1;rounded=1;strokeColor=#004C99;strokeWidth=2;edgeStyle=orthogonalEdgeStyle;curved=1;" edge="1" parent="1">
          <mxGeometry width="50" height="50" relative="1" as="geometry">
            <mxPoint x="850" y="901" as="sourcePoint" />
            <mxPoint x="818.02" y="901" as="targetPoint" />
            <Array as="points">
              <mxPoint x="890" y="901" />
              <mxPoint x="890" y="901" />
            </Array>
          </mxGeometry>
        </mxCell>
        <mxCell id="24hsh32wNpXlRwZztjaE-227" value="" style="endArrow=none;html=1;rounded=0;strokeColor=#004C99;strokeWidth=2;edgeStyle=orthogonalEdgeStyle;curved=1;" edge="1" parent="1">
          <mxGeometry width="50" height="50" relative="1" as="geometry">
            <mxPoint x="838.02" y="1021" as="sourcePoint" />
            <mxPoint x="818.0200000000004" y="1020.95" as="targetPoint" />
            <Array as="points">
              <mxPoint x="980" y="1021" />
              <mxPoint x="980" y="1021" />
            </Array>
          </mxGeometry>
        </mxCell>
        <mxCell id="24hsh32wNpXlRwZztjaE-228" value="&lt;span style=&quot;font-size: 12px;&quot;&gt;Firebase&lt;/span&gt;" style="text;html=1;align=left;verticalAlign=middle;whiteSpace=wrap;rounded=0;fontSize=14;fontColor=#004C99;fontStyle=0;flipH=1;" vertex="1" parent="1">
          <mxGeometry x="821.62" y="1094" width="45" height="20" as="geometry" />
        </mxCell>
        <mxCell id="24hsh32wNpXlRwZztjaE-229" value="&lt;span style=&quot;font-size: 12px;&quot;&gt;Custom&lt;/span&gt;" style="text;html=1;align=left;verticalAlign=middle;whiteSpace=wrap;rounded=0;fontSize=14;fontColor=#004C99;fontStyle=0;flipH=1;" vertex="1" parent="1">
          <mxGeometry x="825" y="1123" width="45" height="20" as="geometry" />
        </mxCell>
        <mxCell id="24hsh32wNpXlRwZztjaE-230" value="" style="endArrow=none;html=1;rounded=1;strokeColor=#004C99;strokeWidth=2;curved=0;" edge="1" parent="1">
          <mxGeometry width="50" height="50" relative="1" as="geometry">
            <mxPoint x="808.4999999999995" y="1105" as="sourcePoint" />
            <mxPoint x="787.4999999999995" y="1105" as="targetPoint" />
            <Array as="points">
              <mxPoint x="818" y="1105" />
            </Array>
          </mxGeometry>
        </mxCell>
        <mxCell id="24hsh32wNpXlRwZztjaE-231" value="" style="endArrow=none;html=1;rounded=0;strokeColor=#004C99;strokeWidth=2;edgeStyle=orthogonalEdgeStyle;curved=1;flowAnimation=0;shadow=0;entryX=0.001;entryY=0.476;entryDx=0;entryDy=0;entryPerimeter=0;" edge="1" parent="1">
          <mxGeometry width="50" height="50" relative="1" as="geometry">
            <mxPoint x="788.9999999999995" y="1135" as="sourcePoint" />
            <mxPoint x="769.9999999999995" y="1120" as="targetPoint" />
            <Array as="points">
              <mxPoint x="779.9999999999995" y="1135" />
              <mxPoint x="779.9999999999995" y="1120" />
            </Array>
          </mxGeometry>
        </mxCell>
        <mxCell id="24hsh32wNpXlRwZztjaE-232" value="" style="endArrow=none;html=1;rounded=1;strokeColor=#004C99;strokeWidth=2;curved=0;" edge="1" parent="1">
          <mxGeometry width="50" height="50" relative="1" as="geometry">
            <mxPoint x="787.5" y="1135" as="sourcePoint" />
            <mxPoint x="791.5" y="1135" as="targetPoint" />
            <Array as="points">
              <mxPoint x="820" y="1135" />
            </Array>
          </mxGeometry>
        </mxCell>
        <mxCell id="24hsh32wNpXlRwZztjaE-233" value="" style="endArrow=none;html=1;rounded=0;strokeColor=#004C99;strokeWidth=2;edgeStyle=orthogonalEdgeStyle;curved=1;flowAnimation=0;shadow=0;entryX=0.001;entryY=0.476;entryDx=0;entryDy=0;entryPerimeter=0;" edge="1" parent="1">
          <mxGeometry width="50" height="50" relative="1" as="geometry">
            <mxPoint x="788.9999999999995" y="1105" as="sourcePoint" />
            <mxPoint x="769.9999999999995" y="1120" as="targetPoint" />
            <Array as="points">
              <mxPoint x="779.9999999999995" y="1105" />
              <mxPoint x="779.9999999999995" y="1120" />
            </Array>
          </mxGeometry>
        </mxCell>
        <mxCell id="24hsh32wNpXlRwZztjaE-234" value="" style="endArrow=none;html=1;rounded=0;strokeColor=#004C99;strokeWidth=2;edgeStyle=orthogonalEdgeStyle;curved=1;flowAnimation=0;shadow=0;" edge="1" parent="1">
          <mxGeometry width="50" height="50" relative="1" as="geometry">
            <mxPoint x="759.5" y="1250" as="sourcePoint" />
            <mxPoint x="739.5" y="1280" as="targetPoint" />
            <Array as="points">
              <mxPoint x="749.5" y="1250" />
              <mxPoint x="749.5" y="1280" />
            </Array>
          </mxGeometry>
        </mxCell>
        <mxCell id="24hsh32wNpXlRwZztjaE-236" value="" style="endArrow=none;html=1;rounded=0;strokeColor=#004C99;strokeWidth=2;edgeStyle=orthogonalEdgeStyle;curved=1;" edge="1" parent="1">
          <mxGeometry width="50" height="50" relative="1" as="geometry">
            <mxPoint x="779.5" y="1279.97" as="sourcePoint" />
            <mxPoint x="739.5" y="1280.03" as="targetPoint" />
            <Array as="points">
              <mxPoint x="850" y="1280" />
              <mxPoint x="850" y="1280" />
            </Array>
          </mxGeometry>
        </mxCell>
        <mxCell id="24hsh32wNpXlRwZztjaE-238" value="" style="endArrow=none;html=1;rounded=0;strokeColor=#004C99;strokeWidth=2;edgeStyle=orthogonalEdgeStyle;curved=1;" edge="1" parent="1">
          <mxGeometry width="50" height="50" relative="1" as="geometry">
            <mxPoint x="759.5" y="1310" as="sourcePoint" />
            <mxPoint x="739.5" y="1280" as="targetPoint" />
            <Array as="points">
              <mxPoint x="749.5" y="1310" />
              <mxPoint x="749.5" y="1280" />
            </Array>
          </mxGeometry>
        </mxCell>
        <mxCell id="24hsh32wNpXlRwZztjaE-239" value="" style="endArrow=none;html=1;rounded=1;strokeColor=#004C99;strokeWidth=2;edgeStyle=orthogonalEdgeStyle;curved=1;" edge="1" parent="1">
          <mxGeometry width="50" height="50" relative="1" as="geometry">
            <mxPoint x="779.5" y="1250" as="sourcePoint" />
            <mxPoint x="759.5" y="1250" as="targetPoint" />
            <Array as="points">
              <mxPoint x="870" y="1250" />
              <mxPoint x="870" y="1250" />
            </Array>
          </mxGeometry>
        </mxCell>
        <mxCell id="24hsh32wNpXlRwZztjaE-240" value="" style="endArrow=none;html=1;rounded=0;strokeColor=#004C99;strokeWidth=2;edgeStyle=orthogonalEdgeStyle;curved=1;" edge="1" parent="1">
          <mxGeometry width="50" height="50" relative="1" as="geometry">
            <mxPoint x="758.5" y="1310" as="sourcePoint" />
            <mxPoint x="780" y="1310" as="targetPoint" />
            <Array as="points">
              <mxPoint x="790" y="1310" />
              <mxPoint x="790" y="1310" />
            </Array>
          </mxGeometry>
        </mxCell>
        <mxCell id="24hsh32wNpXlRwZztjaE-244" value="" style="endArrow=none;html=1;rounded=1;strokeColor=#004C99;strokeWidth=2;curved=0;" edge="1" parent="1">
          <mxGeometry width="50" height="50" relative="1" as="geometry">
            <mxPoint x="840" y="1425" as="sourcePoint" />
            <mxPoint x="827.4999999999995" y="1424.81" as="targetPoint" />
            <Array as="points">
              <mxPoint x="850" y="1425" />
            </Array>
          </mxGeometry>
        </mxCell>
        <mxCell id="24hsh32wNpXlRwZztjaE-245" value="" style="endArrow=none;html=1;rounded=0;strokeColor=#004C99;strokeWidth=2;edgeStyle=orthogonalEdgeStyle;curved=1;flowAnimation=0;shadow=0;entryX=0.001;entryY=0.476;entryDx=0;entryDy=0;entryPerimeter=0;" edge="1" parent="1">
          <mxGeometry width="50" height="50" relative="1" as="geometry">
            <mxPoint x="828.9999999999995" y="1454.81" as="sourcePoint" />
            <mxPoint x="809.9999999999995" y="1439.81" as="targetPoint" />
            <Array as="points">
              <mxPoint x="819.9999999999995" y="1454.81" />
              <mxPoint x="819.9999999999995" y="1439.81" />
            </Array>
          </mxGeometry>
        </mxCell>
        <mxCell id="24hsh32wNpXlRwZztjaE-246" value="" style="endArrow=none;html=1;rounded=1;strokeColor=#004C99;strokeWidth=2;curved=0;" edge="1" parent="1">
          <mxGeometry width="50" height="50" relative="1" as="geometry">
            <mxPoint x="827.5" y="1454.81" as="sourcePoint" />
            <mxPoint x="831.5" y="1454.81" as="targetPoint" />
            <Array as="points">
              <mxPoint x="860" y="1454.81" />
              <mxPoint x="890" y="1455" />
              <mxPoint x="900" y="1455" />
              <mxPoint x="870" y="1455" />
            </Array>
          </mxGeometry>
        </mxCell>
        <mxCell id="24hsh32wNpXlRwZztjaE-247" value="" style="endArrow=none;html=1;rounded=0;strokeColor=#004C99;strokeWidth=2;edgeStyle=orthogonalEdgeStyle;curved=1;flowAnimation=0;shadow=0;entryX=0.001;entryY=0.476;entryDx=0;entryDy=0;entryPerimeter=0;" edge="1" parent="1">
          <mxGeometry width="50" height="50" relative="1" as="geometry">
            <mxPoint x="828.9999999999995" y="1424.81" as="sourcePoint" />
            <mxPoint x="809.9999999999995" y="1439.81" as="targetPoint" />
            <Array as="points">
              <mxPoint x="819.9999999999995" y="1424.81" />
              <mxPoint x="819.9999999999995" y="1439.81" />
            </Array>
          </mxGeometry>
        </mxCell>
        <mxCell id="24hsh32wNpXlRwZztjaE-250" value="" style="endArrow=none;html=1;rounded=1;strokeColor=#004C99;strokeWidth=2;curved=0;" edge="1" parent="1">
          <mxGeometry width="50" height="50" relative="1" as="geometry">
            <mxPoint x="1000.5" y="1410.5" as="sourcePoint" />
            <mxPoint x="987.9999999999995" y="1410.31" as="targetPoint" />
            <Array as="points">
              <mxPoint x="1090" y="1410" />
              <mxPoint x="1010.5" y="1410.5" />
            </Array>
          </mxGeometry>
        </mxCell>
        <mxCell id="24hsh32wNpXlRwZztjaE-251" value="" style="endArrow=none;html=1;rounded=0;strokeColor=#004C99;strokeWidth=2;edgeStyle=orthogonalEdgeStyle;curved=1;flowAnimation=0;shadow=0;entryX=0.001;entryY=0.476;entryDx=0;entryDy=0;entryPerimeter=0;" edge="1" parent="1">
          <mxGeometry width="50" height="50" relative="1" as="geometry">
            <mxPoint x="989.4999999999995" y="1440.31" as="sourcePoint" />
            <mxPoint x="970.4999999999995" y="1425.31" as="targetPoint" />
            <Array as="points">
              <mxPoint x="980.4999999999995" y="1440.31" />
              <mxPoint x="980.4999999999995" y="1425.31" />
            </Array>
          </mxGeometry>
        </mxCell>
        <mxCell id="24hsh32wNpXlRwZztjaE-252" value="" style="endArrow=none;html=1;rounded=1;strokeColor=#004C99;strokeWidth=2;curved=0;" edge="1" parent="1">
          <mxGeometry width="50" height="50" relative="1" as="geometry">
            <mxPoint x="988" y="1440.31" as="sourcePoint" />
            <mxPoint x="992" y="1440.31" as="targetPoint" />
            <Array as="points">
              <mxPoint x="1000" y="1440" />
              <mxPoint x="1010" y="1440" />
            </Array>
          </mxGeometry>
        </mxCell>
        <mxCell id="24hsh32wNpXlRwZztjaE-253" value="" style="endArrow=none;html=1;rounded=0;strokeColor=#004C99;strokeWidth=2;edgeStyle=orthogonalEdgeStyle;curved=1;flowAnimation=0;shadow=0;entryX=0.001;entryY=0.476;entryDx=0;entryDy=0;entryPerimeter=0;" edge="1" parent="1">
          <mxGeometry width="50" height="50" relative="1" as="geometry">
            <mxPoint x="989.4999999999995" y="1410.31" as="sourcePoint" />
            <mxPoint x="970.4999999999995" y="1425.31" as="targetPoint" />
            <Array as="points">
              <mxPoint x="980.4999999999995" y="1410.31" />
              <mxPoint x="980.4999999999995" y="1425.31" />
            </Array>
          </mxGeometry>
        </mxCell>
        <mxCell id="24hsh32wNpXlRwZztjaE-254" value="" style="endArrow=none;html=1;rounded=0;strokeColor=#004C99;strokeWidth=2;edgeStyle=orthogonalEdgeStyle;curved=1;flowAnimation=0;shadow=0;entryX=0.001;entryY=0.476;entryDx=0;entryDy=0;entryPerimeter=0;" edge="1" parent="1">
          <mxGeometry width="50" height="50" relative="1" as="geometry">
            <mxPoint x="990" y="1470" as="sourcePoint" />
            <mxPoint x="970.4999999999995" y="1455" as="targetPoint" />
            <Array as="points">
              <mxPoint x="990" y="1470" />
              <mxPoint x="981" y="1470" />
              <mxPoint x="981" y="1455" />
            </Array>
          </mxGeometry>
        </mxCell>
        <mxCell id="24hsh32wNpXlRwZztjaE-255" value="" style="endArrow=none;html=1;rounded=1;strokeColor=#004C99;strokeWidth=2;curved=0;" edge="1" parent="1">
          <mxGeometry width="50" height="50" relative="1" as="geometry">
            <mxPoint x="990" y="1470" as="sourcePoint" />
            <mxPoint x="994" y="1470" as="targetPoint" />
            <Array as="points">
              <mxPoint x="1002" y="1470" />
              <mxPoint x="1012" y="1470" />
            </Array>
          </mxGeometry>
        </mxCell>
        <mxCell id="24hsh32wNpXlRwZztjaE-256" value="" style="endArrow=none;html=1;rounded=0;strokeColor=#004C99;strokeWidth=2;edgeStyle=orthogonalEdgeStyle;curved=1;flowAnimation=0;shadow=0;entryX=0.001;entryY=0.476;entryDx=0;entryDy=0;entryPerimeter=0;" edge="1" parent="1">
          <mxGeometry width="50" height="50" relative="1" as="geometry">
            <mxPoint x="990" y="1470" as="sourcePoint" />
            <mxPoint x="970.4999999999995" y="1455" as="targetPoint" />
            <Array as="points">
              <mxPoint x="980" y="1455" />
            </Array>
          </mxGeometry>
        </mxCell>
        <mxCell id="24hsh32wNpXlRwZztjaE-257" value="" style="endArrow=none;html=1;rounded=1;strokeColor=#004C99;strokeWidth=2;curved=0;" edge="1" parent="1">
          <mxGeometry width="50" height="50" relative="1" as="geometry">
            <mxPoint x="992" y="1500" as="sourcePoint" />
            <mxPoint x="995.75" y="1500" as="targetPoint" />
            <Array as="points">
              <mxPoint x="1004" y="1500" />
              <mxPoint x="1040" y="1500" />
              <mxPoint x="1014" y="1500" />
            </Array>
          </mxGeometry>
        </mxCell>
        <mxCell id="24hsh32wNpXlRwZztjaE-258" value="" style="endArrow=none;html=1;rounded=1;strokeColor=#004C99;strokeWidth=2;curved=0;" edge="1" parent="1">
          <mxGeometry width="50" height="50" relative="1" as="geometry">
            <mxPoint x="980" y="1460" as="sourcePoint" />
            <mxPoint x="1000" y="1500" as="targetPoint" />
            <Array as="points">
              <mxPoint x="980" y="1490" />
              <mxPoint x="986.25" y="1500" />
            </Array>
          </mxGeometry>
        </mxCell>
        <mxCell id="24hsh32wNpXlRwZztjaE-259" value="" style="endArrow=none;html=1;rounded=1;strokeColor=#004C99;strokeWidth=2;curved=0;" edge="1" parent="1">
          <mxGeometry width="50" height="50" relative="1" as="geometry">
            <mxPoint x="1007" y="1530" as="sourcePoint" />
            <mxPoint x="1010" y="1530" as="targetPoint" />
            <Array as="points">
              <mxPoint x="1000" y="1530" />
              <mxPoint x="1012" y="1530" />
              <mxPoint x="1030" y="1530" />
              <mxPoint x="1040" y="1530" />
            </Array>
          </mxGeometry>
        </mxCell>
        <mxCell id="24hsh32wNpXlRwZztjaE-260" value="" style="endArrow=none;html=1;rounded=1;strokeColor=#004C99;strokeWidth=2;curved=0;" edge="1" parent="1">
          <mxGeometry width="50" height="50" relative="1" as="geometry">
            <mxPoint x="980" y="1480" as="sourcePoint" />
            <mxPoint x="1002" y="1530" as="targetPoint" />
            <Array as="points">
              <mxPoint x="982" y="1530" />
            </Array>
          </mxGeometry>
        </mxCell>
        <mxCell id="24hsh32wNpXlRwZztjaE-261" value="" style="endArrow=none;html=1;rounded=1;strokeColor=#004C99;curved=0;strokeWidth=2;dashed=1;dashPattern=1 1;" edge="1" parent="1">
          <mxGeometry width="50" height="50" relative="1" as="geometry">
            <mxPoint x="600" y="1800" as="sourcePoint" />
            <mxPoint x="600" y="1760" as="targetPoint" />
          </mxGeometry>
        </mxCell>
      </root>
    </mxGraphModel>
  </diagram>
</mxfile>
